<?xml version="1.0" standalone="no"?>
<!DOCTYPE svg PUBLIC "-//W3C//DTD SVG 20010904//EN"
 "http://www.w3.org/TR/2001/REC-SVG-20010904/DTD/svg10.dtd">
<svg version="1.0" xmlns="http://www.w3.org/2000/svg"
 width="1920.000000pt" height="1080.000000pt" viewBox="0 0 1920.000000 1080.000000"
 preserveAspectRatio="xMidYMid meet">

<g transform="translate(0.000000,1080.000000) scale(0.100000,-0.100000)"
fill="#000000" stroke="none">
<path d="M0 5400 c0 -4793 2 -5400 15 -5400 10 0 15 10 15 33 1 42 10 257 15
322 1 28 3 69 4 93 1 31 5 42 17 42 8 0 13 -3 11 -7 -3 -5 6 -9 19 -9 20 -2
21 0 9 12 -7 8 -19 14 -25 14 -6 0 -8 5 -5 10 4 6 17 3 35 -10 35 -25 50 -25
43 -1 -3 10 1 22 7 26 9 5 10 1 5 -14 -6 -19 -2 -21 29 -21 26 0 36 -4 36 -16
0 -10 7 -6 24 13 20 23 26 25 39 14 9 -7 21 -10 27 -6 5 3 10 1 10 -4 0 -6 7
-11 15 -11 8 0 15 4 15 9 0 6 15 7 34 4 19 -3 48 -1 65 5 19 7 31 7 31 1 0 -5
-10 -9 -22 -9 -19 0 -20 -2 -6 -13 9 -6 18 -19 21 -27 4 -10 6 -7 6 8 1 12 6
22 12 22 5 0 7 5 4 10 -3 6 -1 10 5 10 6 0 8 -11 5 -28 l-6 -27 15 25 c8 14
15 33 16 43 0 10 4 16 10 12 5 -3 7 -12 3 -20 -3 -8 -1 -15 3 -16 5 -1 23 -2
39 -4 42 -4 76 -19 107 -49 16 -15 30 -22 33 -16 4 6 11 7 17 4 6 -4 5 -10 -3
-16 -10 -7 -8 -8 8 -3 15 4 25 0 32 -12 5 -10 13 -15 17 -11 4 4 1 14 -6 23
-18 22 -6 30 14 9 10 -9 15 -23 12 -30 -8 -20 11 -17 23 3 5 10 12 15 16 11 4
-3 -1 -17 -9 -31 -16 -23 -15 -25 9 -41 25 -16 25 -16 13 9 -14 31 3 58 24 37
9 -9 8 -12 -5 -12 -9 0 -17 -4 -17 -10 0 -5 9 -10 20 -10 14 0 20 -7 20 -22 0
-17 3 -19 12 -10 18 18 27 15 21 -7 -5 -20 18 -42 25 -23 6 19 19 14 25 -9 3
-11 11 -19 19 -17 23 5 79 -44 72 -64 -4 -13 0 -18 12 -18 9 0 30 -14 46 -31
17 -17 36 -28 44 -25 11 4 12 2 4 -14 -17 -31 -13 -42 11 -30 11 6 30 9 42 7
l22 -4 -22 -2 c-22 -1 -34 -31 -13 -31 17 0 11 -28 -8 -33 -9 -2 521 -5 1180
-6 1183 -1 1248 0 1248 29 0 4 -7 13 -15 20 -12 10 -15 10 -15 -1 0 -8 -9 -20
-20 -27 -26 -16 -26 -7 0 21 11 12 18 27 16 34 -7 16 6 17 22 1 9 -9 15 -9 24
0 9 9 8 12 -5 12 -21 0 -22 16 -2 24 8 3 15 1 15 -5 0 -6 4 -7 10 -4 16 10 12
25 -7 25 -13 0 -14 3 -5 12 10 10 17 10 32 0 24 -15 50 -16 50 -2 0 6 -8 10
-18 10 -24 0 -28 48 -4 57 9 4 19 10 22 14 9 11 50 -9 50 -26 0 -8 5 -15 11
-15 5 0 8 4 5 9 -4 5 -2 20 3 33 l10 23 0 -23 c1 -13 5 -20 11 -17 7 4 9 51 7
126 -3 65 0 119 4 119 5 0 9 7 9 15 0 8 -7 15 -16 15 -8 0 -12 5 -9 11 4 6 13
8 20 5 7 -2 16 2 19 10 3 9 10 12 16 9 15 -9 12 -25 -4 -25 -21 0 -28 -80 -10
-108 11 -17 12 -27 5 -36 -8 -9 -8 -22 0 -45 l11 -32 16 23 c9 13 21 27 26 31
7 6 4 7 -6 4 -21 -7 -34 39 -17 59 10 12 8 16 -9 21 -25 6 -30 23 -6 23 11 0
14 6 9 20 -5 15 -1 22 17 29 21 8 21 10 5 16 -15 6 -16 10 -5 16 18 11 19 79
2 79 -8 0 -14 5 -14 10 0 6 5 10 12 10 9 0 9 3 1 11 -7 7 -7 23 3 55 11 38 11
44 -1 44 -21 0 -19 9 6 29 20 16 21 21 10 67 -13 54 -3 131 20 144 6 4 8 13 5
19 -4 6 2 38 13 71 12 33 21 78 21 100 0 25 5 43 14 46 15 6 31 101 29 186 -1
43 3 58 13 58 8 0 14 -8 15 -17 0 -15 2 -15 8 2 6 15 4 21 -11 25 -24 6 -20
26 5 23 24 -4 21 24 -4 32 -17 6 -19 9 -8 16 11 7 11 9 1 9 -7 0 -10 4 -7 10
4 6 13 5 25 -2 10 -7 17 -15 14 -19 -4 -8 26 -22 33 -15 9 9 -22 61 -36 61 -8
0 -16 6 -19 14 -3 9 0 11 7 7 6 -4 25 -12 42 -16 28 -8 30 -8 17 8 -7 9 -17
20 -23 25 -6 4 -3 12 8 21 18 14 24 56 7 56 -5 0 -10 7 -10 16 0 9 6 14 13 11
8 -3 20 -2 27 3 9 6 7 10 -8 14 -26 9 -18 36 8 29 14 -4 22 2 30 21 5 14 7 32
4 40 -3 8 6 28 20 43 14 15 26 31 26 35 0 5 7 8 15 8 24 0 17 20 -7 21 -22 1
-22 1 2 9 23 7 23 8 4 9 -12 1 -24 7 -27 14 -4 10 4 12 27 10 29 -4 30 -3 12
11 -15 12 -16 16 -5 16 8 0 22 8 31 19 8 10 22 21 29 24 11 3 9 8 -6 21 -19
15 -19 15 10 16 17 0 36 -5 42 -11 13 -13 33 -4 33 14 0 8 -3 7 -9 -2 -8 -12
-12 -12 -27 0 -11 8 -19 23 -19 34 0 13 -6 20 -17 19 -26 -2 -22 7 14 39 l33
29 -32 -6 c-19 -3 -33 -1 -33 4 0 6 7 10 15 10 8 0 15 5 15 10 0 6 -7 10 -15
10 -20 0 -16 32 5 42 22 10 60 9 60 -1 0 -5 -10 -12 -22 -14 -19 -4 -18 -5 5
-6 27 -1 28 1 26 42 -2 24 1 48 5 55 7 11 1 16 -15 14 -18 -3 6 37 31 51 16
10 32 27 36 40 7 21 7 21 15 2 6 -17 8 -16 8 9 1 24 4 27 22 23 25 -7 49 1 49
15 0 6 -7 5 -16 -3 -14 -11 -15 -7 -12 32 2 35 7 44 21 43 12 -1 17 5 17 22 0
12 5 26 11 29 6 4 8 13 5 21 -3 8 -1 14 5 14 5 0 12 -7 15 -15 6 -14 8 -13 20
2 13 17 13 17 14 0 0 -10 5 -15 11 -11 6 3 8 16 5 29 -8 30 17 53 39 35 9 -7
13 -21 10 -30 -5 -17 21 -37 33 -25 3 3 0 5 -6 5 -22 0 -12 20 13 30 30 11 31
18 8 36 -16 12 -15 13 15 14 27 0 32 -4 32 -24 0 -23 41 -76 59 -76 6 0 21 5
34 11 26 12 86 1 89 -16 3 -17 -35 -18 -44 -1 -10 18 -38 22 -38 5 0 -6 9 -13
20 -16 24 -6 26 -21 5 -29 -8 -4 -12 -10 -9 -15 8 -13 20 -11 37 5 9 9 19 11
28 5 11 -7 11 -9 -3 -9 -10 0 -18 -6 -18 -14 0 -8 -8 -17 -17 -19 -10 -3 -4
-5 12 -4 26 2 31 -3 40 -31 9 -31 28 -42 40 -22 11 18 35 11 44 -13 5 -13 16
-29 25 -36 13 -11 15 -25 11 -60 -3 -25 -2 -40 1 -33 7 14 84 17 84 2 0 -5
-12 -10 -27 -11 l-28 0 23 -12 c17 -8 25 -8 30 0 4 6 23 13 42 16 19 2 27 2
18 0 -10 -2 -18 -8 -18 -12 0 -16 28 -31 44 -25 10 4 16 1 16 -9 0 -8 9 -17
20 -20 14 -3 20 -14 20 -32 0 -27 4 -28 56 -8 17 6 24 -10 17 -35 -4 -15 -13
-22 -32 -23 -26 -1 -26 -1 4 -10 17 -5 40 -7 53 -4 35 9 25 -12 -13 -26 -40
-15 -43 -23 -15 -46 24 -21 26 -51 4 -60 -13 -5 -13 -7 -2 -14 7 -5 22 -8 33
-8 11 0 14 3 8 6 -17 6 -17 40 -1 46 10 4 9 8 -2 16 -23 16 -5 23 23 8 25 -13
25 -15 9 -32 -16 -17 -16 -17 11 -11 20 5 27 3 27 -8 0 -8 -6 -17 -12 -19 -7
-3 -8 -6 -3 -6 6 0 16 3 24 8 18 12 5 68 -17 74 -10 3 -6 5 10 6 20 1 31 -7
49 -36 22 -38 22 -38 29 -13 l6 25 8 -22 c4 -13 14 -23 22 -23 8 0 12 -5 9
-10 -4 -6 -23 -7 -47 -3 -30 4 -39 3 -34 -6 4 -6 12 -9 17 -6 5 4 9 -1 9 -9 0
-10 -6 -13 -15 -10 -10 4 -15 0 -15 -11 0 -10 5 -15 14 -12 7 3 19 0 26 -6 10
-9 11 -7 5 11 -5 18 -2 22 13 22 11 0 22 4 24 9 2 5 17 12 34 15 29 6 33 4 53
-30 17 -29 25 -34 31 -24 5 8 12 11 17 7 11 -11 -17 -27 -48 -27 -23 0 -28 5
-34 37 -4 21 -10 32 -12 26 -3 -7 -11 -13 -19 -13 -8 0 -14 -4 -14 -10 0 -5 7
-10 15 -10 8 0 15 -4 15 -10 0 -5 -4 -10 -10 -10 -5 0 -10 -5 -10 -11 0 -6 9
-8 20 -4 11 4 20 2 20 -4 0 -6 -5 -11 -12 -11 -9 0 -9 -3 0 -12 9 -9 15 -9 24
0 7 7 21 12 31 12 17 0 18 -2 6 -16 -10 -13 -10 -17 2 -25 12 -8 12 -10 -1
-19 -12 -8 -12 -10 -1 -10 8 0 20 -8 27 -18 13 -16 14 -16 20 6 4 15 14 22 30
22 21 0 24 -3 18 -27 l-7 -28 27 24 c26 24 26 24 26 3 0 -12 5 -22 10 -22 6 0
10 -6 10 -14 0 -8 4 -18 10 -21 11 -7 2 23 -13 43 -13 16 0 29 33 35 14 2 19
2 13 0 -22 -8 -14 -24 18 -36 21 -8 29 -17 25 -29 -7 -29 3 -21 18 15 l14 32
11 -28 c6 -16 11 -34 11 -42 0 -8 5 -17 11 -20 6 -4 14 -17 19 -29 9 -21 9
-21 9 3 1 20 3 21 16 11 18 -15 45 -6 45 15 0 9 5 13 10 10 6 -3 7 -17 4 -31
-4 -15 -2 -24 5 -24 14 0 54 22 63 35 5 6 8 5 8 -2 0 -19 -47 -46 -70 -40 -13
3 -20 0 -20 -9 0 -16 36 -19 45 -4 4 6 11 7 17 4 6 -4 5 -10 -3 -15 -11 -7 -9
-10 9 -15 26 -8 29 -21 5 -27 -14 -4 -13 -5 4 -6 17 -1 22 5 25 27 2 21 8 27
28 27 20 0 26 -6 30 -30 l6 -30 7 34 c10 46 9 59 -3 41 -6 -10 -10 -11 -10 -2
0 7 -13 12 -30 12 -16 0 -30 -5 -30 -12 0 -6 -2 -9 -5 -6 -3 3 -3 12 0 20 6
14 65 22 65 8 0 -4 15 -5 33 -3 17 2 26 0 20 -3 -7 -3 -13 -20 -13 -38 0 -18
-6 -38 -12 -45 -11 -11 -9 -12 10 -6 16 5 22 2 22 -9 0 -9 5 -16 10 -16 14 0
12 11 -5 30 -13 15 -14 22 -3 46 7 16 17 32 23 36 6 5 5 8 -2 8 -22 0 -14 18
10 22 22 3 39 48 18 48 -6 0 -11 17 -11 38 0 48 -14 72 -32 54 -6 -6 -21 -12
-33 -12 -16 0 -14 4 12 20 18 11 39 17 48 14 8 -4 15 -1 15 5 0 6 7 11 15 11
18 0 20 -21 3 -38 -9 -9 -9 -12 1 -12 21 0 41 27 41 54 0 16 6 26 15 26 9 0
15 -9 15 -25 0 -14 2 -25 5 -25 16 0 96 45 86 48 -6 2 -18 -2 -26 -8 -12 -10
-15 -9 -15 8 0 12 8 26 18 32 12 8 14 13 4 16 -7 3 -17 15 -23 26 -7 14 -8 18
0 14 5 -4 18 5 27 19 21 32 34 32 34 0 0 -14 5 -25 10 -25 6 0 10 15 10 34 0
29 3 33 20 29 11 -3 20 -1 20 5 0 5 -14 12 -30 15 -27 6 -43 27 -20 27 6 0 10
5 10 11 0 7 -11 8 -32 3 -29 -6 -31 -5 -19 10 7 9 20 16 27 16 8 0 14 5 14 10
0 6 6 10 14 10 8 0 16 7 20 15 3 8 12 15 21 15 20 0 19 19 -1 27 -13 5 -13 7
-2 14 21 14 38 10 38 -7 0 -11 6 -14 23 -8 30 9 32 11 17 29 -17 20 -5 32 16
15 13 -11 17 -11 24 -1 11 18 23 -19 14 -43 -4 -11 -1 -16 11 -16 12 0 16 6
12 20 -3 10 1 27 8 37 13 17 14 17 20 1 4 -9 4 -21 1 -27 -4 -5 -2 -12 4 -16
6 -4 10 10 10 37 1 35 3 40 11 25 7 -12 17 -16 30 -12 13 4 21 1 26 -12 6 -17
22 -33 33 -33 4 0 5 17 3 37 l-3 38 13 -34 c14 -37 39 -56 30 -23 -2 11 0 23
6 26 6 4 11 2 11 -3 0 -6 18 -11 40 -11 40 0 46 7 40 49 -1 12 1 13 13 3 8 -7
13 -22 10 -32 -7 -26 9 -26 32 0 16 18 16 20 2 20 -24 0 -21 21 3 27 11 3 20
12 20 19 0 16 16 19 25 4 12 -19 33 -10 43 18 9 24 10 25 11 5 1 -20 6 -23 40
-23 25 0 41 -5 45 -15 3 -8 1 -15 -4 -15 -6 0 -10 -4 -10 -10 0 -15 36 -12 50
5 9 10 9 15 1 15 -6 0 -11 9 -11 20 0 25 15 26 29 3 9 -15 12 -15 19 -5 7 11
11 10 16 -4 4 -10 2 -20 -4 -24 -6 -4 5 -7 25 -8 28 -1 38 3 46 21 8 19 9 17
4 -11 -3 -21 -1 -31 6 -27 5 4 18 -2 28 -14 14 -16 20 -18 30 -8 10 9 12 8 9
-8 -2 -13 -12 -20 -26 -21 -24 -1 -57 -24 -35 -24 7 0 15 5 18 10 9 14 28 1
21 -15 -5 -15 31 -28 40 -14 3 6 0 16 -6 24 -15 19 -10 19 24 1 26 -13 26 -14
5 -19 -27 -7 -20 -29 12 -38 16 -5 18 -7 7 -8 -10 -1 -18 -5 -18 -11 0 -18
-22 -10 -27 10 -3 11 -9 20 -13 20 -5 0 -6 -9 -3 -20 3 -11 10 -20 15 -20 6 0
7 -11 4 -25 -6 -24 7 -35 19 -15 8 13 45 13 45 0 0 -5 -8 -10 -17 -10 -12 0
-9 -5 11 -15 15 -8 37 -15 47 -15 10 0 21 -5 25 -11 8 -13 36 60 30 78 -3 6
-2 14 2 18 7 7 9 13 11 45 0 11 8 20 16 20 15 0 19 11 16 40 -2 12 0 13 8 1 7
-11 11 -10 20 6 11 21 51 38 51 22 0 -5 13 -6 29 -3 16 4 32 1 35 -5 4 -6 16
-11 27 -11 10 0 19 -5 19 -11 0 -5 -5 -7 -12 -3 -6 4 -8 3 -5 -3 11 -18 18
-155 7 -148 -6 3 -10 1 -10 -4 0 -6 5 -11 10 -11 7 0 7 -7 -1 -21 -8 -15 -8
-24 0 -32 13 -13 15 -31 3 -23 -4 2 -14 0 -22 -6 -12 -8 -12 -9 3 -4 11 4 20
0 24 -12 6 -18 42 -51 56 -52 4 0 7 32 6 71 -1 60 2 73 20 90 19 18 25 17 22
-3 0 -5 4 -8 10 -8 5 0 7 -5 4 -10 -4 -6 -1 -18 6 -26 9 -11 9 -18 1 -26 -7
-7 -7 -17 0 -33 7 -16 7 -29 -1 -43 -6 -12 -7 -23 -2 -26 13 -8 -10 -66 -26
-66 -7 0 -13 5 -13 11 0 5 -4 7 -10 4 -6 -3 -7 1 -4 9 3 9 10 16 15 16 5 0 9
5 9 11 0 6 -7 9 -15 5 -8 -3 -15 -1 -15 4 0 6 -7 10 -16 10 -9 0 -12 -5 -7
-12 10 -17 6 -97 -5 -111 -16 -20 -10 -47 10 -47 11 0 16 -5 13 -11 -9 -13 25
-40 42 -34 7 2 13 0 13 -6 0 -5 11 -14 24 -20 21 -10 23 -15 15 -37 -11 -29 4
-45 34 -38 9 2 15 0 12 -4 -3 -5 0 -12 6 -16 8 -5 7 -9 -2 -14 -10 -7 -10 -11
0 -24 11 -13 11 -16 1 -16 -8 0 -10 -3 -7 -7 4 -3 2 -12 -4 -20 -9 -10 -8 -13
4 -13 9 0 21 8 27 17 9 15 11 14 7 -10 -3 -20 -1 -27 8 -23 25 9 38 -48 49
-212 4 -52 16 -86 16 -44 0 12 5 22 11 22 7 0 9 10 5 25 -5 19 -3 23 9 19 11
-5 13 -2 9 11 -4 9 -1 20 6 25 9 6 9 12 1 29 -7 11 -8 21 -4 21 14 0 31 48 21
58 -6 6 1 11 17 14 19 4 23 2 16 -5 -6 -6 -11 -15 -11 -20 0 -5 7 -1 16 7 13
13 14 27 5 88 -5 39 -8 75 -5 80 3 4 -1 8 -8 8 -10 0 -10 2 1 9 11 7 11 15 3
39 -8 24 -7 33 4 43 9 7 14 8 14 1 0 -6 -6 -13 -13 -16 -6 -3 -3 -4 8 -3 11 2
19 9 17 17 -2 8 0 25 3 39 5 20 8 22 16 10 5 -7 9 -25 9 -39 0 -17 3 -21 8
-12 6 8 18 -6 37 -45 15 -32 35 -65 44 -74 28 -29 51 -59 51 -68 0 -5 7 -14
15 -21 13 -10 18 -11 28 -1 9 10 8 15 -6 26 -10 7 -19 17 -20 22 -1 4 -5 7 -9
5 -5 -1 -8 15 -8 35 0 21 -7 52 -16 68 -29 57 -86 238 -81 262 2 13 0 26 -4
29 -5 3 -9 20 -9 39 0 19 -5 37 -11 40 -6 4 -8 14 -5 22 4 9 1 22 -5 29 -9 11
-8 14 2 14 10 0 11 2 2 8 -18 11 -33 195 -18 211 8 7 13 -3 18 -34 3 -22 9
-29 21 -27 10 2 23 -4 30 -14 12 -16 13 -16 20 2 6 16 9 16 17 4 9 -13 10 -12
6 2 -3 9 1 24 8 35 19 24 18 33 0 33 -17 0 -20 16 -5 25 13 8 13 25 -1 25 -5
0 -7 -5 -4 -11 4 -6 -2 -5 -14 2 -20 13 -20 14 7 25 26 12 26 15 0 18 -15 1
-50 95 -41 109 3 6 1 7 -4 4 -15 -10 -26 23 -13 38 6 7 10 17 9 21 -1 5 2 24
6 43 7 30 10 32 20 17 12 -15 13 -15 19 0 4 9 5 18 4 19 -2 1 -10 6 -20 11
-15 8 -15 11 3 33 17 20 19 21 19 5 0 -11 4 -15 8 -9 4 6 15 16 25 24 17 13
18 10 16 -52 -1 -47 -6 -67 -15 -67 -7 0 -14 6 -16 12 -3 9 -10 7 -23 -6 -19
-18 -19 -19 0 -13 26 8 38 -1 53 -38 14 -34 17 -145 6 -185 -11 -43 -4 -104
11 -89 2 3 7 34 10 69 8 96 16 140 26 140 5 0 9 -11 9 -24 0 -20 4 -23 21 -19
12 4 25 0 30 -8 7 -11 9 -9 9 8 0 12 -4 25 -10 28 -5 3 -10 17 -10 31 0 13 -5
24 -11 24 -6 0 -9 7 -5 15 3 8 0 15 -6 15 -7 0 -7 4 0 13 10 13 11 161 0 172
-4 4 -4 13 -1 21 3 8 0 14 -6 14 -6 0 -11 5 -11 10 0 6 3 9 8 8 4 -2 18 7 31
19 23 21 23 22 2 16 -17 -4 -21 -1 -21 20 0 32 9 57 21 57 5 0 9 -9 9 -20 0
-11 5 -20 10 -20 6 0 9 5 8 11 -2 6 3 14 10 16 8 3 12 -6 12 -25 0 -37 9 -62
22 -62 6 0 8 7 4 15 -8 22 7 18 21 -5 8 -12 9 -21 3 -25 -6 -3 -10 -14 -10
-23 0 -14 4 -13 22 6 17 17 20 24 10 34 -7 7 -12 19 -12 27 0 8 14 -6 31 -32
17 -26 28 -51 24 -57 -3 -5 6 -15 22 -21 22 -8 24 -12 13 -19 -13 -8 -13 -12
2 -26 15 -16 18 -16 33 0 18 18 35 21 35 6 0 -5 -4 -10 -10 -10 -5 0 -10 -8
-10 -17 0 -14 2 -15 9 -4 11 17 23 -1 15 -23 -7 -19 7 -21 25 -3 11 10 14 9
18 -1 3 -6 9 -9 15 -6 6 4 8 -1 3 -15 -5 -16 -3 -20 9 -15 11 4 16 0 17 -12 2
-34 -3 -59 -12 -62 -5 -2 -6 -8 -3 -13 3 -6 11 -5 20 2 9 7 14 8 14 1 0 -6 -5
-14 -10 -17 -5 -3 -10 -17 -10 -31 0 -17 -5 -24 -19 -24 -21 0 -37 -17 -26
-28 3 -3 10 0 15 7 6 11 9 10 13 -5 5 -18 5 -17 12 3 5 15 12 20 23 16 14 -5
15 -3 5 7 -9 10 -9 18 -1 34 12 21 12 21 19 -4 6 -23 7 -23 8 -3 1 12 6 25 11
28 5 3 10 15 10 27 0 15 4 18 16 14 10 -4 25 1 37 11 19 17 19 17 12 -5 -6
-21 -4 -23 14 -17 12 4 21 2 21 -4 0 -6 4 -11 10 -11 5 0 7 6 4 14 -3 8 -1 17
5 21 6 3 11 3 11 -2 0 -12 57 -14 85 -3 16 6 27 6 31 -1 12 -19 33 24 23 48
-8 21 -6 23 18 19 27 -5 43 -21 43 -43 0 -7 -4 -13 -10 -13 -5 0 -10 7 -10 15
0 8 -4 15 -10 15 -16 0 -12 -26 9 -51 l18 -23 7 40 8 39 24 -28 c13 -16 24
-25 24 -21 0 4 10 -2 23 -13 29 -27 52 -40 43 -25 -13 21 0 13 38 -23 21 -19
44 -35 52 -35 8 0 12 -4 9 -10 -3 -5 0 -7 9 -4 8 3 36 -4 62 -15 25 -12 54
-21 63 -21 9 1 -7 11 -34 23 -28 12 -61 30 -75 40 -13 9 -31 17 -40 17 -17 1
-85 59 -77 66 5 5 30 -13 62 -43 16 -16 35 -17 35 -3 0 6 -4 10 -10 10 -5 0
-17 16 -26 36 -9 20 -23 38 -31 41 -7 3 -10 10 -7 15 4 6 -4 5 -16 -2 -12 -6
-24 -9 -28 -6 -3 3 0 6 6 6 6 0 9 8 6 17 -5 15 -4 16 5 3 6 -8 11 -10 11 -4 0
20 -70 101 -105 123 -18 11 -17 12 10 8 17 -2 38 -8 49 -12 16 -7 17 -5 8 12
-6 11 -25 26 -42 33 -39 16 -38 27 3 33 38 5 69 -5 99 -33 25 -23 34 -25 44
-9 4 7 1 15 -7 20 -8 4 -23 15 -34 24 -15 12 -16 15 -4 12 9 -3 21 -1 27 5 16
16 -4 47 -26 41 -10 -2 -25 3 -32 12 -12 14 -12 18 1 26 19 12 39 11 39 -1 0
-5 5 -10 10 -10 6 0 10 6 10 14 0 8 6 17 13 19 7 4 3 8 -10 12 -23 7 -32 25
-13 25 6 0 10 6 10 13 0 8 7 14 15 14 8 0 15 -3 15 -6 0 -4 10 -12 21 -20 18
-11 23 -11 30 1 7 10 9 8 9 -6 0 -11 3 -16 7 -13 3 4 12 -1 20 -11 12 -15 13
-13 7 18 -4 19 -15 43 -26 52 -11 9 -17 21 -14 27 4 5 2 12 -3 15 -5 4 -11 -2
-14 -11 -4 -17 -5 -16 -12 1 -6 13 -4 21 3 24 7 2 9 8 6 14 -4 6 1 8 15 3 25
-7 28 7 6 29 -8 8 -15 21 -15 28 0 10 2 10 8 1 9 -15 57 -33 85 -33 20 1 20 2
-5 16 -16 8 -28 19 -28 25 0 6 -7 8 -15 5 -10 -3 -18 1 -22 12 -3 9 -20 29
-37 44 -17 14 -27 30 -23 34 4 4 13 2 19 -4 17 -17 33 -15 18 3 -14 17 0 21
16 5 7 -7 11 -1 11 19 0 17 -3 28 -6 27 -3 -2 -19 6 -34 18 l-28 23 26 17 c24
16 26 16 31 -1 22 -66 75 -136 91 -120 3 4 1 7 -6 7 -7 0 -10 4 -6 9 3 5 1 12
-5 16 -13 8 -13 25 -1 25 13 0 131 -116 131 -129 0 -6 10 -16 23 -22 31 -16
49 -38 69 -81 10 -21 22 -38 28 -38 12 0 13 23 1 35 -4 6 -11 23 -15 38 -6 26
-5 27 14 17 11 -6 20 -14 20 -19 0 -4 19 -23 43 -41 32 -26 38 -17 6 10 -3 3
-22 30 -41 60 -19 30 -45 64 -58 75 -32 29 -65 96 -39 79 7 -4 10 -1 7 6 -2 7
-12 14 -22 16 -20 3 -38 23 -66 76 -22 41 -18 48 13 20 18 -15 20 -15 14 -1
-4 13 -1 16 16 12 21 -4 21 -4 -2 14 -43 33 -133 124 -128 130 9 9 44 -7 83
-38 20 -16 40 -27 43 -24 6 7 -30 38 -111 96 -56 40 -73 62 -63 79 3 5 -4 14
-15 20 -11 6 -20 18 -20 26 0 8 -5 25 -11 36 -11 20 -13 20 -24 5 -11 -15 -17
-13 -54 28 -22 24 -41 52 -41 60 0 9 -7 18 -15 22 -16 5 -45 53 -45 72 0 12
31 2 45 -14 6 -7 18 -15 28 -18 24 -9 22 15 -3 38 -14 12 -17 22 -10 29 6 6
18 0 35 -18 29 -31 32 -51 8 -64 -16 -9 -15 -15 10 -58 24 -41 40 -54 66 -54
l26 0 -25 20 c-22 17 -24 21 -12 41 11 17 11 23 1 29 -6 5 -9 17 -6 28 2 12 0
23 -7 26 -8 3 -7 7 2 14 16 11 11 48 -6 45 -6 -2 -19 23 -29 55 -10 31 -25 65
-34 75 -9 9 -20 27 -26 40 -44 94 -59 122 -65 125 -5 2 -8 9 -8 15 0 7 -18 37
-40 67 -22 30 -44 65 -50 78 -5 12 -14 22 -20 22 -5 0 -10 7 -10 15 0 16 -39
77 -53 83 -4 2 -4 8 -1 14 4 6 3 13 -2 17 -11 7 -74 136 -74 151 0 6 -10 27
-23 48 -34 55 -53 97 -91 209 -18 56 -43 114 -54 129 -11 16 -28 55 -36 87 -9
31 -21 57 -27 57 -6 0 -8 9 -4 19 3 11 0 23 -6 27 -9 5 -7 11 6 21 14 10 16
16 8 24 -6 6 -9 18 -6 25 3 8 0 21 -7 29 -7 8 -16 29 -20 47 -5 18 -12 44 -16
58 -6 22 -5 23 8 12 13 -11 14 -6 1 40 -14 53 -10 142 7 163 11 13 21 132 20
233 0 28 4 58 9 65 6 6 22 25 36 41 28 33 30 37 14 53 -9 9 -7 10 10 6 11 -3
21 -9 21 -14 0 -5 4 -9 9 -9 5 0 7 19 4 43 -5 35 -3 40 8 30 20 -20 29 -16 41
17 9 29 36 37 30 11 -1 -7 2 -10 8 -6 5 3 7 17 4 31 -5 18 -2 24 11 24 11 0
15 5 11 15 -3 9 0 15 9 15 8 0 15 5 15 10 0 6 4 10 9 10 13 0 67 51 64 60 -3
12 26 34 34 26 4 -3 1 -12 -5 -18 -17 -17 -15 -28 3 -22 8 4 15 16 15 28 0 12
6 28 12 34 10 10 10 15 1 20 -8 5 -7 13 4 27 15 20 15 20 8 -2 -5 -19 -2 -23
14 -23 14 0 19 5 15 15 -4 8 -1 22 6 30 7 8 10 22 6 30 -4 10 1 15 14 15 13 0
20 7 20 20 0 16 7 20 34 20 21 0 36 -6 40 -15 8 -21 26 -19 26 4 0 17 4 18 32
10 17 -5 34 -6 37 -4 2 3 -1 5 -7 5 -7 0 -12 5 -12 10 0 6 9 10 21 10 17 0 19
-4 13 -22 -6 -20 -5 -21 8 -10 13 10 15 8 10 -15 -5 -27 -4 -27 14 -12 10 9
31 18 45 21 23 4 25 2 21 -21 -5 -26 -5 -26 27 6 40 42 40 32 0 -19 -17 -21
-29 -41 -26 -44 6 -6 70 35 75 49 7 14 21 7 27 -13 4 -11 11 -17 17 -14 6 4 8
-1 3 -16 -6 -19 -5 -21 13 -11 11 6 22 14 24 18 3 5 3 3 2 -4 -2 -6 6 -11 16
-10 10 1 16 5 14 9 -9 14 14 8 31 -8 10 -10 22 -13 33 -8 9 4 23 6 30 5 6 -1
12 5 12 13 0 27 22 29 41 5 18 -24 19 -24 19 -3 0 26 27 39 46 23 11 -9 15 -7
20 6 7 17 8 17 20 0 11 -15 18 -16 38 -7 17 8 27 7 36 -1 9 -9 11 -7 8 8 -2
16 2 19 20 18 12 -2 22 2 22 7 0 11 60 4 72 -8 3 -4 8 -16 10 -27 2 -11 10
-19 16 -17 7 1 12 -7 12 -18 0 -13 -9 -22 -25 -26 -27 -7 -34 -24 -10 -24 8 0
15 5 15 12 0 6 3 9 6 6 3 -4 0 -16 -6 -28 -9 -17 -9 -25 0 -34 8 -8 10 -7 5 7
-9 21 8 22 29 2 8 -8 19 -15 25 -15 6 0 11 -6 11 -12 0 -10 2 -10 8 -1 4 6 27
11 52 11 65 -1 72 1 64 13 -4 8 -9 7 -15 -2 -6 -10 -9 -8 -9 8 0 17 5 21 31
19 21 -2 38 5 52 20 15 16 25 20 33 13 8 -7 14 -6 19 1 3 5 0 10 -7 10 -9 0
-9 3 2 10 21 14 28 12 33 -7 4 -14 5 -12 6 5 1 13 7 22 17 22 10 0 14 6 10 15
-3 8 -2 15 3 15 9 0 12 20 11 67 0 27 3 31 18 26 15 -6 15 -4 -2 15 l-19 22
-19 -20 c-31 -33 -52 -22 -54 30 -1 19 -18 69 -37 110 -26 54 -32 77 -24 82 8
5 7 8 -4 8 -9 0 -32 20 -50 44 -19 24 -46 51 -61 60 -18 11 -25 22 -21 36 3
11 1 20 -4 20 -5 0 -9 10 -10 23 -2 20 0 20 13 -5 15 -28 33 -37 35 -18 1 6 2
14 3 19 1 11 145 150 191 186 17 13 57 37 90 54 50 26 61 29 65 16 5 -13 10
-11 30 9 13 14 20 29 17 33 -4 3 -7 2 -7 -4 0 -6 -7 -13 -15 -17 -28 -10 -15
13 15 29 23 12 30 12 30 3 0 -14 -41 -68 -79 -105 -13 -13 -21 -26 -17 -30 7
-8 73 59 124 125 17 23 30 31 43 27 13 -5 25 4 44 35 14 22 29 38 34 36 4 -3
32 3 62 14 29 11 55 20 58 20 2 0 -2 6 -8 14 -8 10 -9 16 -1 21 5 3 10 3 10 0
0 -4 14 3 30 15 17 12 30 18 30 14 0 -3 6 -2 13 4 13 11 104 61 180 100 27 13
61 25 77 27 16 1 36 7 44 14 7 6 18 11 22 9 5 -1 31 8 58 20 28 13 57 20 65
16 13 -5 12 -8 -5 -14 -24 -9 -41 -30 -25 -30 11 0 70 36 114 70 54 42 123 86
153 99 18 7 40 20 51 30 10 10 30 25 45 35 25 16 26 16 30 -1 3 -14 8 -9 22
19 20 41 30 51 106 102 l55 37 -67 -63 c-37 -35 -69 -73 -73 -85 -3 -12 -19
-26 -36 -32 -26 -9 -48 -35 -37 -46 7 -7 91 65 109 93 17 30 127 128 134 121
6 -7 -50 -90 -79 -119 -31 -31 -32 -35 -5 -37 13 -1 29 11 47 37 15 22 35 42
45 45 19 7 43 45 29 45 -5 0 -15 -7 -22 -15 -19 -23 -30 -18 -17 8 38 70 167
214 181 200 5 -5 -21 -60 -34 -73 -3 -3 -21 -24 -39 -48 -22 -29 -29 -42 -18
-40 21 4 21 -7 0 -38 -24 -35 -77 -93 -67 -74 7 13 6 13 -9 1 -10 -8 -17 -21
-16 -30 3 -34 -3 -42 -57 -77 -30 -19 -64 -50 -75 -67 -10 -18 -19 -28 -19
-24 0 4 -13 -8 -30 -26 -16 -19 -30 -41 -30 -49 0 -15 -30 -44 -74 -73 -14
-10 -26 -24 -26 -31 0 -23 16 -16 45 17 14 17 28 29 32 26 3 -3 -2 -13 -11
-22 -9 -9 -16 -21 -16 -26 0 -14 -43 -28 -56 -18 -7 6 -31 -12 -67 -48 -31
-31 -60 -53 -64 -49 -4 4 -1 11 7 16 8 5 11 13 6 17 -4 4 -14 -1 -22 -12 -9
-12 -11 -21 -4 -23 17 -6 11 -26 -11 -40 -12 -7 -18 -16 -15 -19 3 -3 12 0 21
7 12 10 15 10 15 -3 0 -8 -10 -21 -22 -30 -13 -8 -20 -18 -17 -21 3 -3 19 4
34 16 l28 22 -5 -22 c-5 -18 -2 -22 15 -23 12 0 16 -3 10 -6 -7 -2 -13 -11
-13 -19 0 -8 -6 -14 -14 -14 -7 0 -22 -12 -32 -28 -11 -17 -12 -23 -3 -16 17
14 59 25 59 15 0 -3 -9 -12 -20 -19 -11 -7 -20 -17 -20 -23 0 -6 13 0 29 13
15 13 26 28 24 33 -2 6 11 24 28 40 l32 30 -22 -38 c-29 -47 -21 -57 16 -23
29 27 43 33 43 16 0 -5 -4 -10 -9 -10 -5 0 -11 -9 -14 -19 -4 -15 4 -11 30 14
37 36 49 37 63 1 5 -13 9 -15 9 -6 1 17 39 45 49 36 3 -4 -3 -13 -14 -20 -10
-8 -16 -17 -12 -21 9 -9 48 17 48 33 0 10 5 10 21 1 17 -9 25 -8 37 4 11 12
19 13 33 4 14 -9 22 -7 37 6 10 9 23 17 29 17 6 0 13 7 17 15 10 26 23 16 18
-12 -4 -24 -3 -26 10 -16 11 9 17 10 26 1 8 -8 13 -4 18 15 3 15 10 24 15 21
5 -3 12 2 15 10 3 9 13 16 21 16 12 0 14 -7 8 -27 l-6 -28 30 31 c22 23 40 31
60 30 23 -2 27 2 23 16 -3 14 2 18 21 18 14 0 28 -4 31 -9 9 -14 57 -10 63 5
3 8 19 14 38 14 18 0 35 4 37 9 2 5 46 11 98 14 52 3 95 7 95 8 0 1 14 3 30 4
17 1 43 8 60 14 16 7 40 10 52 6 13 -3 23 -1 23 5 0 6 10 8 25 4 14 -4 40 -7
58 -8 25 -1 35 -9 51 -39 13 -24 27 -37 40 -37 17 0 18 -2 6 -10 -13 -9 -11
-13 9 -30 13 -11 25 -28 26 -38 3 -29 18 -76 31 -97 7 -11 14 -31 16 -45 2
-14 9 -31 16 -38 13 -15 7 -36 -9 -27 -12 8 -12 -11 1 -35 7 -13 5 -21 -6 -31
-11 -9 -12 -14 -3 -20 10 -6 10 -11 -2 -25 -13 -15 -12 -16 11 -9 23 7 23 7 6
-11 -20 -19 -55 -26 -71 -14 -21 16 -203 80 -270 96 -72 17 -281 22 -377 9
-28 -4 -55 -2 -68 5 -15 8 -25 8 -34 1 -7 -6 -17 -7 -21 -3 -5 4 -6 0 -2 -10
4 -11 -1 -18 -16 -23 -12 -4 -24 -8 -27 -10 -25 -11 -40 -15 -73 -18 -21 -3
-39 -7 -40 -8 -18 -34 -27 -45 -43 -48 -10 -2 -30 -15 -45 -30 -14 -14 -47
-44 -75 -66 -48 -39 -130 -118 -126 -122 3 -5 -23 -58 -42 -86 -10 -15 -24
-44 -31 -64 -11 -31 -10 -41 5 -67 13 -24 27 -34 66 -43 27 -6 43 -12 37 -12
-17 -1 -17 -33 0 -50 10 -10 9 -15 -5 -25 -24 -18 -23 -29 3 -21 16 5 20 3 17
-12 -2 -11 2 -17 11 -15 8 2 11 -3 8 -13 -8 -18 14 -20 31 -3 9 9 12 7 12 -10
0 -12 4 -22 10 -22 5 0 8 14 6 30 -2 17 1 30 5 30 5 0 9 -9 9 -20 0 -16 7 -20
34 -20 45 0 66 9 66 27 0 8 -4 11 -10 8 -5 -3 -10 -4 -10 -1 0 11 63 38 69 29
10 -14 45 -12 54 2 4 8 14 12 22 9 8 -4 15 -2 15 4 0 6 -6 12 -12 15 -7 2 -10
8 -5 12 4 5 12 4 18 -2 6 -6 18 -9 25 -6 8 3 14 0 14 -6 0 -6 -7 -11 -15 -11
-18 0 -20 -16 -3 -26 6 -4 14 -2 16 5 3 9 7 9 18 0 11 -9 14 -8 14 4 0 9 -5
19 -10 22 -12 8 12 35 31 35 10 0 10 -3 1 -12 -17 -17 -15 -48 3 -48 8 0 15 6
15 13 0 7 11 20 24 31 16 11 22 24 19 34 -5 12 -2 14 11 9 9 -4 33 0 52 8 19
8 33 11 30 7 -2 -4 7 -8 21 -9 19 -1 22 1 12 8 -11 7 -11 9 4 9 9 0 17 -4 17
-10 0 -5 7 -10 16 -10 10 0 14 6 10 15 -4 11 1 15 19 15 14 0 25 3 25 8 0 4
-18 6 -39 4 -71 -7 -80 0 -36 28 21 13 47 32 56 41 9 9 23 21 31 25 8 5 29 30
47 56 35 49 44 91 45 201 0 66 4 68 72 32 26 -14 52 -25 59 -25 6 0 26 -16 45
-35 l33 -34 -11 -68 c-8 -47 -18 -73 -32 -85 -11 -9 -20 -26 -20 -37 0 -12 -4
-21 -9 -21 -9 0 -24 -30 -18 -36 2 -2 20 8 40 22 20 13 37 21 37 17 0 -4 5 -2
12 5 7 7 18 12 25 12 11 0 11 -4 2 -22 -10 -18 -8 -24 12 -39 34 -26 61 -24
30 2 -13 11 -21 22 -18 25 11 11 99 -86 93 -103 -5 -11 -2 -14 10 -9 11 4 15
2 11 -8 -3 -8 1 -13 11 -12 9 0 16 -5 15 -11 -2 -7 2 -13 8 -13 6 0 33 -18 59
-40 26 -22 55 -40 64 -40 9 0 20 -10 25 -22 5 -13 12 -22 17 -22 5 1 18 -2 29
-7 14 -5 15 -8 5 -9 -9 -1 -4 -6 10 -12 14 -6 28 -10 33 -10 4 1 7 -3 7 -9 0
-12 46 -59 57 -59 15 0 94 -95 99 -119 12 -54 15 -59 39 -65 26 -7 36 -32 21
-57 -5 -9 -6 -25 -1 -35 5 -11 7 -22 7 -26 -1 -5 3 -8 8 -8 6 0 10 5 10 10 0
6 4 10 9 10 12 0 20 -49 9 -56 -5 -3 -4 -12 3 -20 6 -8 9 -17 6 -20 -3 -3 1
-21 9 -39 8 -19 14 -45 14 -59 0 -13 6 -26 12 -28 9 -3 12 -32 11 -102 -1 -53
1 -95 5 -92 11 7 11 -77 0 -91 -5 -7 -7 -16 -4 -22 3 -5 1 -22 -5 -38 -17 -41
-19 -95 -6 -112 9 -11 9 -15 0 -18 -7 -3 -13 -9 -13 -15 0 -6 6 -8 13 -5 10 4
13 -8 14 -45 0 -30 -3 -44 -8 -36 -5 8 -7 -6 -5 -34 3 -27 1 -48 -4 -48 -4 0
-8 -24 -8 -52 1 -100 -37 -314 -59 -336 -7 -7 -13 -23 -13 -35 0 -83 -183
-404 -359 -631 -105 -135 -117 -152 -124 -169 -3 -9 -11 -17 -17 -17 -6 0 -10
-8 -8 -18 2 -9 -3 -16 -9 -15 -7 2 -13 -3 -13 -11 0 -8 -7 -22 -16 -30 -9 -9
-12 -21 -7 -28 12 -20 3 -51 -19 -67 -16 -11 -17 -15 -7 -22 12 -8 11 -11 -1
-18 -16 -11 -15 -13 15 -29 17 -10 18 -11 3 -12 -14 0 -16 -6 -11 -30 5 -25 3
-29 -11 -24 -9 3 -16 1 -16 -5 0 -6 5 -11 10 -11 6 0 10 -5 10 -11 0 -6 -6 -9
-14 -6 -8 3 -16 -2 -19 -14 -4 -14 0 -19 15 -19 18 0 18 -1 4 -16 -19 -18 -21
-34 -4 -34 6 0 2 -9 -10 -20 -23 -22 -29 -50 -11 -50 8 0 8 -4 0 -14 -6 -8
-11 -18 -10 -22 1 -5 1 -22 0 -39 -2 -28 -3 -29 -11 -7 -5 12 -7 29 -4 37 4 8
2 15 -4 15 -13 0 -25 -32 -14 -39 16 -11 23 -59 9 -65 -6 -3 2 -3 18 0 17 3
25 2 19 -3 -15 -12 -44 -78 -44 -102 0 -22 -30 -92 -44 -102 -16 -12 13 -19
39 -9 35 13 35 14 35 -15 0 -18 5 -25 19 -25 32 0 35 -20 4 -21 l-28 0 25 -11
c14 -6 21 -12 15 -14 -5 -2 -9 -32 -9 -67 1 -34 -3 -68 -9 -76 -8 -10 -7 -16
6 -25 12 -10 14 -15 5 -24 -9 -9 -9 -15 0 -24 18 -18 14 -46 -8 -53 -20 -6
-28 -35 -10 -35 6 0 10 3 10 8 0 4 14 13 31 21 17 8 26 16 20 20 -6 4 -1 17
14 35 13 15 27 42 31 59 3 17 10 38 14 47 11 22 31 117 35 170 1 25 6 86 10
135 8 121 31 284 44 319 6 15 11 37 11 49 0 23 1 23 88 18 7 -1 15 -9 19 -18
3 -10 13 -26 22 -36 12 -14 15 -39 13 -104 -1 -47 1 -90 5 -96 3 -6 7 -29 7
-51 1 -34 5 -42 22 -44 20 -3 30 4 60 40 6 8 9 19 7 25 -3 7 10 33 27 58 17
25 28 50 25 56 -4 5 -1 16 5 24 6 8 9 19 5 25 -9 14 14 42 27 33 6 -3 8 0 6 8
-3 8 2 21 11 29 21 19 44 71 36 79 -4 3 -13 -3 -21 -13 -11 -16 -16 -17 -28
-6 -21 17 -31 77 -17 94 10 11 9 16 -3 23 -14 8 -14 15 4 66 23 64 25 97 8 97
-8 0 -9 3 -2 10 5 5 18 7 29 4 18 -4 20 -14 20 -76 1 -47 5 -73 13 -76 7 -2
12 -17 12 -34 0 -41 20 -32 45 19 16 33 25 41 43 40 22 -1 23 -5 18 -42 -3
-22 -8 -71 -11 -110 -3 -38 -8 -81 -12 -95 -3 -14 -7 -31 -9 -38 -1 -8 -10
-22 -19 -32 -13 -14 -15 -27 -9 -52 4 -18 8 -49 8 -68 1 -19 5 -40 9 -47 4 -6
1 -13 -5 -16 -7 -2 -10 -8 -6 -12 4 -4 14 -2 22 4 13 11 14 8 12 -16 -2 -15
-4 -34 -5 -40 -2 -25 -21 -13 -21 13 0 14 -4 23 -9 20 -12 -8 -20 -56 -10 -56
13 0 10 -13 -9 -37 -26 -34 -47 -16 -34 31 6 21 7 38 1 42 -8 4 -14 -25 -10
-49 0 -4 -3 -7 -8 -7 -5 0 -16 -16 -26 -36 -13 -29 -14 -38 -5 -44 10 -6 11
-23 5 -67 -4 -32 -8 -77 -8 -100 0 -29 -5 -43 -14 -43 -7 0 -13 -8 -13 -17 0
-16 -38 -103 -49 -113 -11 -9 -29 -54 -46 -110 -12 -42 -14 -62 -6 -83 6 -16
11 -42 11 -59 0 -47 -38 -146 -80 -208 -37 -55 -53 -86 -55 -105 -2 -17 -26
-58 -57 -95 -15 -19 -28 -39 -28 -43 0 -5 -13 -26 -30 -47 -16 -20 -34 -49
-40 -64 -16 -42 -63 -98 -220 -256 -80 -81 -165 -158 -189 -171 -24 -13 -54
-30 -66 -36 -12 -7 -28 -20 -35 -28 -10 -12 -10 -15 3 -15 8 0 20 7 27 14 6 8
27 20 46 26 19 7 32 16 29 21 -4 5 3 9 14 9 18 0 15 -6 -19 -42 -22 -24 -40
-48 -40 -55 0 -7 -7 -10 -17 -6 -12 5 -15 2 -10 -10 4 -11 -2 -22 -18 -33 -14
-9 -23 -20 -20 -24 3 -4 -13 -29 -34 -55 -21 -26 -38 -53 -37 -62 0 -8 -14
-23 -31 -33 -46 -25 -115 -89 -108 -100 4 -6 0 -13 -9 -16 -8 -3 -12 -12 -10
-19 3 -7 -8 -26 -24 -41 -37 -36 -51 -74 -27 -74 20 0 75 31 75 42 0 4 5 8 11
8 6 0 43 23 81 51 38 28 72 49 74 46 3 -2 -22 -32 -56 -65 -62 -63 -80 -98
-32 -64 15 11 36 29 47 39 11 10 37 27 58 37 20 11 37 25 37 33 0 8 4 12 9 9
5 -3 14 1 21 9 7 8 19 15 26 15 8 0 14 3 14 8 0 4 16 15 35 25 19 9 50 24 69
34 18 9 46 35 61 57 l27 41 -5 -38 c-3 -20 -2 -37 2 -37 13 0 51 36 51 49 0 6
5 11 11 11 6 0 8 9 4 23 -7 22 -7 22 9 2 15 -20 15 -20 16 3 0 19 4 22 22 17
16 -6 20 -4 15 8 -4 11 4 17 29 22 29 5 37 13 50 46 9 21 20 39 24 39 13 0 20
-61 9 -81 -5 -11 -12 -34 -14 -52 -2 -17 -8 -33 -14 -35 -5 -2 -7 -12 -4 -22
3 -11 0 -20 -6 -20 -6 0 -11 -9 -11 -19 0 -11 -15 -46 -34 -79 -24 -44 -31
-63 -23 -71 8 -8 8 -11 -1 -11 -7 0 -12 -4 -12 -10 0 -20 30 3 37 29 8 33 50
98 69 105 8 3 14 11 14 18 0 7 9 19 20 26 11 7 20 19 20 27 0 7 9 29 19 47 10
18 22 51 26 73 4 22 12 49 18 60 6 11 10 24 8 30 -1 5 1 7 5 2 4 -4 15 4 23
17 9 14 34 43 55 66 32 35 43 41 65 35 14 -3 31 -11 36 -16 6 -6 9 -57 8 -122
-2 -62 -2 -137 -2 -167 1 -64 1 -58 -7 -133 -4 -31 -11 -57 -16 -57 -5 0 -6
-9 -3 -20 4 -12 2 -27 -4 -34 -8 -9 -3 -20 19 -41 16 -16 33 -25 37 -22 3 4 1
7 -5 7 -7 0 -12 4 -12 10 0 5 7 7 15 4 9 -4 16 3 21 20 3 14 10 26 14 26 5 0
9 8 9 18 0 24 16 96 25 110 4 6 0 31 -8 55 -16 49 -15 292 2 337 5 14 10 46
11 72 0 26 3 67 6 90 7 60 84 248 101 248 8 0 14 5 14 10 0 6 6 10 14 10 16 0
68 83 64 102 -2 7 2 12 9 11 7 -2 10 4 7 12 -4 8 -1 15 6 15 18 0 67 54 62 68
-2 7 2 12 10 13 17 0 53 47 61 79 6 26 25 48 71 84 13 11 22 26 19 33 -3 7 -1
13 5 13 14 0 23 -27 15 -46 -5 -14 -3 -15 16 -5 12 7 26 23 31 36 5 13 14 26
19 30 16 9 -6 46 -23 39 -22 -9 -28 14 -12 43 8 16 17 40 20 55 7 32 65 66 78
46 5 -9 8 -4 8 13 0 14 11 43 25 63 14 21 25 51 25 69 0 18 4 37 9 43 4 5 14
31 21 57 7 27 19 51 27 54 8 3 12 11 10 18 -6 14 45 65 66 65 19 0 31 31 16
40 -7 5 -7 10 -1 14 5 3 8 17 6 31 -1 15 10 49 24 77 20 38 27 69 29 121 3 71
34 164 52 153 14 -9 12 -182 -3 -219 -23 -54 -33 -114 -29 -168 3 -37 0 -56
-12 -69 -12 -13 -14 -32 -10 -86 7 -82 15 -235 16 -284 1 -19 -5 -61 -11 -93
-11 -51 -11 -63 3 -93 11 -21 23 -33 34 -32 37 3 52 -2 55 -20 8 -37 -35 -149
-87 -227 -39 -57 -54 -89 -53 -112 1 -37 25 -35 34 3 3 13 10 24 15 24 5 0 23
23 40 50 17 28 39 56 49 63 11 7 28 34 39 59 35 82 61 73 61 -21 l0 -54 20 26
c11 14 19 32 18 39 -2 7 3 12 10 11 15 -4 15 2 2 28 -9 15 -7 21 5 26 14 5 16
19 14 82 -2 42 0 81 4 88 4 6 4 18 1 27 -3 9 1 27 10 41 9 13 16 40 16 60 0
20 8 57 18 83 30 74 44 115 49 142 3 14 15 48 28 75 13 28 24 70 24 95 1 25 3
52 5 60 12 47 20 61 31 56 9 -3 13 9 13 42 0 65 12 229 26 352 4 30 9 80 12
110 4 30 8 108 9 173 2 64 9 134 15 153 7 20 10 55 7 79 -6 41 -6 42 31 53 24
8 40 8 46 2 15 -15 26 -12 26 5 0 24 26 17 62 -15 18 -17 34 -26 36 -20 2 5
11 10 19 10 9 0 13 6 10 15 -9 23 10 27 42 10 35 -17 45 -19 36 -5 -3 5 9 7
32 4 21 -3 155 -7 298 -8 230 -2 277 -5 405 -28 80 -15 201 -32 270 -38 156
-14 200 -18 275 -30 33 -5 78 -12 100 -15 71 -11 263 -63 310 -84 11 -5 43
-19 70 -32 104 -46 285 -161 366 -232 133 -116 269 -283 345 -422 88 -160 240
-554 284 -735 10 -41 32 -129 50 -195 79 -300 113 -431 179 -705 68 -284 94
-407 117 -545 2 -11 12 -74 24 -140 22 -130 65 -431 76 -532 l7 -63 223 0 224
0 0 5400 0 5400 -9600 0 -9600 0 0 -5400z m14561 5360 c11 0 41 -70 36 -84 -5
-13 -57 88 -56 106 1 7 3 5 6 -4 2 -10 9 -18 14 -18z m83 -146 c11 -28 6 -39
-9 -20 -8 11 -15 23 -15 28 0 14 18 9 24 -8z m76 -54 c0 -5 -2 -10 -4 -10 -3
0 -8 5 -11 10 -3 6 -1 10 4 10 6 0 11 -4 11 -10z m-846 -46 c3 -8 2 -12 -4 -9
-6 3 -10 10 -10 16 0 14 7 11 14 -7z m56 -94 c0 -5 -4 -10 -10 -10 -5 0 -10 5
-10 10 0 6 5 10 10 10 6 0 10 -4 10 -10z m-172 -73 c6 -21 6 -35 1 -32 -5 4
-9 14 -9 24 0 9 -4 21 -9 27 -5 5 -12 20 -16 34 -7 24 -6 24 8 5 8 -11 19 -37
25 -58z m212 -12 c7 -19 7 -24 -1 -19 -11 6 -39 65 -39 81 0 12 29 -32 40 -62z
m-461 -45 c0 -10 -3 -8 -9 5 -12 27 -12 43 0 25 5 -8 9 -22 9 -30z m75 -66 c3
-8 2 -12 -4 -9 -6 3 -10 10 -10 16 0 14 7 11 14 -7z m-35 -44 c6 -19 7 -30 2
-25 -5 6 -13 24 -17 40 -9 39 0 30 15 -15z m-715 -38 c-4 -18 -10 -32 -15 -32
-11 0 -11 1 2 39 14 40 21 35 13 -7z m755 -87 c26 -81 27 -117 1 -50 -21 54
-36 115 -27 115 3 0 15 -29 26 -65z m60 -25 c0 -22 -2 -21 -14 10 -18 47 -18
71 0 40 8 -14 14 -36 14 -50z m-849 13 c0 -13 -26 -82 -33 -89 -10 -10 -8 15
4 59 5 20 14 37 19 37 6 0 10 -3 10 -7z m851 -186 c-8 -8 -11 -7 -11 4 0 20
13 34 18 19 3 -7 -1 -17 -7 -23z m16 -69 c-3 -7 -5 -2 -5 12 0 14 2 19 5 13 2
-7 2 -19 0 -25z m-23 -13 c5 -22 4 -26 -4 -15 -5 8 -10 24 -10 34 0 26 6 18
14 -19z m59 -41 c10 -20 15 -39 12 -42 -7 -8 -12 -1 -30 41 -20 47 -6 48 18 1z
m-947 -911 c-10 -10 -19 5 -10 18 6 11 8 11 12 0 2 -7 1 -15 -2 -18z m-111
-15 c-9 -41 -59 -144 -86 -178 -11 -14 -33 -47 -50 -74 -16 -26 -33 -46 -36
-42 -7 7 -43 -23 -43 -36 0 -5 5 -6 10 -3 6 3 10 1 10 -5 0 -6 -8 -13 -17 -17
-32 -11 -45 -25 -32 -34 16 -10 -32 -75 -72 -98 -16 -9 -29 -19 -29 -23 0 -5
-4 -8 -10 -8 -5 0 -10 7 -10 15 0 8 3 14 8 14 23 -4 32 4 33 29 0 24 1 25 9 7
5 -11 9 -14 9 -7 1 6 8 12 16 12 13 0 14 4 5 20 -6 11 -7 20 -3 19 27 -4 34 1
19 16 -8 8 -16 15 -19 15 -2 0 -19 -23 -36 -52 -29 -45 -34 -50 -43 -34 -7 13
-6 21 4 29 8 7 29 36 47 65 37 58 46 64 38 26 l-5 -26 21 20 c16 17 18 24 8
35 -9 12 -7 16 10 20 12 3 18 10 14 16 -3 6 1 18 9 27 9 8 16 21 16 28 0 16
32 78 58 111 12 15 22 34 22 41 0 22 22 63 36 68 12 5 12 1 0 -22 -15 -30 -19
-85 -5 -76 5 3 9 12 9 20 0 8 4 14 9 14 5 0 12 12 16 28 7 28 42 72 58 72 5 0
5 -15 2 -32z m150 11 c11 -17 -46 -169 -64 -169 -13 0 -13 -2 -2 -9 11 -7 9
-10 -8 -16 -11 -3 -21 -11 -21 -17 0 -6 6 -6 15 2 8 7 15 9 15 6 0 -16 -30
-64 -43 -69 -19 -7 -19 -57 -1 -57 8 0 14 5 14 10 0 6 5 10 12 10 6 0 4 -7 -5
-18 -10 -10 -17 -24 -17 -30 0 -6 -5 -14 -12 -18 -8 -5 -9 0 -6 14 4 12 3 22
0 22 -11 0 -62 -85 -62 -102 0 -9 -7 -22 -17 -29 -15 -13 -16 -11 -10 16 6 26
5 28 -6 11 -6 -11 -26 -36 -42 -55 -17 -20 -38 -48 -48 -63 -9 -14 -27 -30
-39 -33 -22 -7 -72 -54 -64 -62 5 -6 36 8 36 17 0 7 65 50 75 50 2 0 1 -9 -2
-20 -3 -11 -9 -18 -13 -15 -4 3 -13 -8 -19 -23 -16 -37 -38 -62 -86 -97 -22
-16 -59 -47 -82 -69 -39 -36 -43 -38 -43 -18 0 12 5 22 10 22 6 0 10 10 9 23
l0 22 -9 -21 c-5 -12 -13 -25 -19 -29 -6 -3 -20 -24 -32 -46 -14 -27 -32 -46
-57 -57 -20 -8 -40 -15 -44 -14 -4 1 -4 -6 -1 -15 5 -13 2 -15 -11 -10 -9 4
-24 3 -34 -2 -25 -12 -84 -32 -107 -35 -11 -2 -29 -7 -40 -12 -17 -7 -18 -6
-8 8 7 8 10 18 6 21 -3 4 -1 7 5 7 6 0 52 39 102 87 50 48 103 95 118 105 15
10 27 22 27 27 0 6 25 36 56 68 31 32 64 72 72 88 28 51 64 85 83 78 11 -4 15
-2 11 4 -4 6 0 16 8 23 8 7 15 18 16 24 0 6 10 25 22 42 12 17 53 78 91 135
83 124 75 113 80 108 3 -2 -6 -27 -20 -54 -31 -65 -32 -86 -1 -57 27 26 37 28
37 7 0 -8 -4 -15 -10 -15 -5 0 -10 -7 -10 -15 0 -8 -7 -16 -15 -16 -8 -1 -19
-3 -25 -4 -5 -1 -13 -3 -17 -4 -5 -1 -2 -5 5 -9 9 -6 -3 -24 -43 -63 -54 -53
-65 -69 -45 -69 6 0 10 7 10 15 0 8 5 15 11 15 6 0 8 -7 5 -15 -3 -9 17 8 44
36 28 29 50 56 50 61 0 5 4 7 9 4 5 -3 26 10 47 29 21 19 33 35 27 35 -6 0
-14 -6 -16 -12 -4 -8 -6 -7 -6 4 -1 9 -4 24 -8 34 -5 13 -3 15 7 9 9 -5 11 -4
6 4 -4 6 0 14 8 17 16 6 23 34 8 34 -4 0 -16 -10 -27 -22 -18 -21 -20 -21 -23
-5 -2 10 2 25 9 33 6 8 9 17 6 21 -4 3 -2 13 5 20 9 11 9 17 -3 24 -11 7 -11
9 -1 9 17 0 82 68 93 98 5 13 17 22 29 22 11 0 20 5 20 10 0 13 17 13 25 -1z
m-118 -41 c-3 -8 -6 -5 -6 6 -1 11 2 17 5 13 3 -3 4 -12 1 -19z m245 -270 c-7
-7 -12 -8 -12 -2 0 14 12 26 19 19 2 -3 -1 -11 -7 -17z m-211 -103 c-12 -25
-26 -43 -32 -39 -7 4 -5 14 6 27 8 12 20 32 27 45 21 42 21 13 -1 -33z m-484
-17 c-28 -40 -44 -58 -51 -58 -9 0 2 19 34 58 28 35 41 35 17 0z m753 24 c0
-5 9 -18 20 -30 17 -18 18 -25 8 -47 -10 -22 -9 -28 2 -35 13 -8 12 -14 -4
-40 -19 -32 -15 -53 6 -32 7 7 14 12 18 12 8 0 5 -94 -4 -108 -4 -7 -2 -12 3
-12 6 0 11 5 11 10 0 6 9 10 20 10 11 0 20 -4 20 -10 0 -5 -7 -10 -15 -10 -7
0 -18 -6 -22 -14 -4 -7 -15 -16 -23 -19 -8 -3 -1 -6 17 -6 17 -1 33 -7 36 -13
3 -10 7 -10 20 0 17 14 18 11 43 -91 5 -22 9 -25 16 -15 5 8 6 3 2 -14 -5 -22
-3 -28 10 -28 9 0 16 -5 16 -11 0 -5 -4 -8 -9 -4 -5 3 -12 1 -15 -4 -4 -5 -2
-12 4 -16 11 -7 8 -64 -4 -84 -4 -6 -2 -18 4 -26 15 -18 -1 -20 -18 -3 -9 9
-12 8 -12 -5 0 -11 8 -17 21 -17 18 0 19 -2 9 -15 -7 -8 -9 -15 -5 -15 5 0 6
-3 3 -6 -4 -3 -16 0 -28 6 -26 14 -37 6 -20 -15 18 -21 -6 -20 -28 2 -16 16
-17 15 -20 -1 -3 -12 -9 -15 -25 -10 -12 4 -26 12 -30 18 -5 6 -5 1 -2 -11 5
-19 2 -23 -14 -23 -12 0 -21 5 -21 10 0 6 -9 10 -21 10 -11 0 -17 -5 -14 -10
11 -19 -23 -22 -49 -5 -23 15 -26 15 -26 2 0 -8 6 -17 13 -20 6 -2 9 -7 5 -11
-3 -4 -20 0 -38 9 -35 18 -50 14 -31 -9 10 -12 6 -13 -29 -9 -28 4 -40 2 -40
-7 0 -7 -7 -10 -16 -6 -8 3 -25 1 -36 -5 -22 -12 -40 -3 -19 10 10 7 9 10 -3
14 -11 4 -16 1 -16 -10 0 -12 -3 -14 -10 -7 -7 7 -8 19 -1 37 6 15 8 27 5 27
-3 0 4 13 15 29 22 30 27 51 13 51 -5 0 -23 -32 -41 -71 -34 -72 -54 -89 -97
-81 -27 5 -55 32 -34 32 8 0 11 3 8 6 -10 9 -48 -16 -48 -31 0 -17 -16 -20
-25 -5 -4 6 -14 9 -23 8 -11 -2 -16 3 -14 15 4 27 -2 21 -48 -38 -42 -55 -63
-67 -40 -25 15 28 3 41 -16 16 -10 -14 -14 -16 -14 -5 0 8 -12 1 -29 -18 -16
-17 -32 -29 -35 -26 -3 4 -6 1 -6 -6 0 -7 -4 -9 -10 -6 -5 3 -10 -2 -10 -11 0
-10 -3 -14 -7 -11 -3 4 -12 -1 -19 -11 -7 -9 -16 -13 -20 -9 -5 4 -4 11 2 15
6 4 10 17 9 30 -1 13 4 22 12 22 7 0 21 18 30 39 10 22 26 45 38 51 11 7 34
30 50 53 35 48 71 67 41 23 -22 -35 -11 -49 15 -17 28 34 23 12 -7 -32 -36
-53 -24 -57 20 -6 36 42 46 69 26 69 -6 0 -5 6 2 14 7 8 16 10 19 5 3 -5 22 9
41 31 20 22 33 40 30 40 -4 0 -2 4 3 8 14 10 75 99 75 109 0 5 8 16 18 24 9 9
22 25 28 35 7 10 15 16 18 13 4 -4 -11 -46 -34 -94 -22 -49 -38 -90 -36 -93 9
-9 27 11 22 24 -3 8 -1 14 5 14 5 0 14 12 20 28 51 129 117 260 138 272 17 9
21 8 21 -5 0 -9 5 -13 10 -10 15 9 12 52 -5 69 -13 13 -12 16 16 30 28 14 30
14 27 -2 -3 -9 -9 -16 -16 -15 -6 2 -9 -4 -6 -12 4 -8 8 -15 9 -15 12 0 36 37
45 69 5 21 19 46 30 56 19 18 20 17 20 -1 0 -10 -7 -32 -15 -48 -9 -16 -16
-41 -17 -55 -1 -14 -8 -35 -15 -46 -14 -21 -18 -55 -5 -55 9 0 62 129 62 152
0 10 9 22 20 28 11 6 20 19 20 30 0 10 7 26 16 34 12 12 12 16 2 16 -10 0 -9
3 2 10 18 12 30 13 30 2z m-98 -34 c-8 -8 -9 -4 -5 13 4 13 8 18 11 10 2 -7
-1 -18 -6 -23z m-92 -48 c-6 -12 -14 -20 -17 -17 -2 3 1 14 8 26 7 11 15 18
17 16 2 -2 -2 -13 -8 -25z m-110 16 c0 -11 -19 -15 -25 -6 -3 5 1 10 9 10 9 0
16 -2 16 -4z m-410 -14 c0 -5 -13 -21 -30 -37 -35 -33 -39 -26 -9 16 19 28 39
38 39 21z m304 -26 c-3 -9 -10 -16 -15 -16 -6 0 -5 9 1 21 13 24 24 20 14 -5z
m47 -20 c-12 -12 -21 -29 -21 -38 0 -19 -73 -93 -78 -79 -3 8 9 26 43 65 6 6
23 31 39 56 17 26 31 39 34 32 2 -8 -5 -24 -17 -36z m-363 -39 c-16 -13 -28
-32 -29 -42 0 -11 -3 -14 -6 -7 -7 17 -16 15 -41 -7 -28 -24 -28 -34 0 -25 20
6 20 5 7 -9 -9 -8 -26 -28 -40 -43 -15 -18 -35 -30 -52 -30 -23 -2 -26 1 -16
12 6 8 17 13 23 12 6 -2 24 7 40 20 29 22 27 26 -9 22 -18 -2 -18 0 5 25 14
15 38 34 54 42 16 8 38 24 49 34 12 10 26 19 31 19 6 -1 -1 -11 -16 -23z m393
-8 c-5 -13 -10 -18 -10 -11 -1 8 -6 10 -13 6 -7 -4 -4 2 6 14 23 27 30 23 17
-9z m89 -39 c-18 -11 -22 -7 -14 14 5 13 10 14 18 6 8 -8 7 -13 -4 -20z m327
-32 c-3 -7 -5 -2 -5 12 0 14 2 19 5 13 2 -7 2 -19 0 -25z m-583 -42 c-3 -9
-10 -16 -15 -16 -6 0 -5 9 1 21 13 24 24 20 14 -5z m152 -42 c-4 -9 -9 -15
-11 -12 -3 3 -3 13 1 22 4 9 9 15 11 12 3 -3 3 -13 -1 -22z m-93 -40 c-9 -15
-19 -21 -21 -15 -4 13 16 41 29 41 5 0 2 -12 -8 -26z m-521 -46 c-7 -7 -12 -8
-12 -2 0 14 12 26 19 19 2 -3 -1 -11 -7 -17z m-187 -98 c-22 -21 -44 -39 -50
-39 -5 -1 9 17 33 39 55 52 69 52 17 0z m648 5 c-3 -9 -8 -14 -10 -11 -3 3 -2
9 2 15 9 16 15 13 8 -4z m-682 -86 c-13 -11 -26 -17 -29 -15 -3 3 6 14 19 25
13 11 26 17 29 14 3 -2 -6 -13 -19 -24z m139 -44 c-7 -8 -19 -15 -27 -15 -13
0 -13 3 -3 15 7 8 19 15 27 15 13 0 13 -3 3 -15z m-280 -56 c0 -6 7 -8 16 -5
14 5 15 4 4 -9 -7 -8 -17 -15 -23 -15 -6 0 -18 -6 -26 -14 -15 -13 -91 -39
-91 -31 0 2 17 11 38 20 60 27 67 32 66 49 -1 9 2 16 7 16 5 0 9 -5 9 -11z
m-110 -23 c0 -2 -7 -7 -16 -10 -8 -3 -12 -2 -9 4 6 10 25 14 25 6z m850 -84
c0 -4 -9 -8 -20 -9 -16 -1 -17 1 -7 12 12 13 27 11 27 -3z m-1093 -138 c-3 -3
-12 -4 -19 -1 -8 3 -5 6 6 6 11 1 17 -2 13 -5z m-58 -27 c-8 -7 -18 -19 -21
-28 -6 -15 -58 -34 -58 -21 0 12 65 62 79 62 15 -1 15 -2 0 -13z m711 -82 c-7
-8 -17 -15 -23 -15 -5 0 -2 9 8 20 21 23 35 19 15 -5z m-850 -17 c-27 -25 -35
-19 -14 10 8 12 20 20 25 16 6 -4 2 -14 -11 -26z m883 -20 c-6 -33 -18 -36
-26 -8 -3 13 0 20 9 20 8 0 14 5 14 12 0 6 2 9 4 7 2 -2 2 -16 -1 -31z m-1333
-199 c-7 -11 -14 -18 -17 -15 -3 3 0 12 7 21 18 21 23 19 10 -6z m-50 -43 c0
-3 -4 -8 -10 -11 -5 -3 -10 -1 -10 4 0 6 5 11 10 11 6 0 10 -2 10 -4z m65 -6
c-3 -5 -12 -10 -18 -10 -7 0 -6 4 3 10 19 12 23 12 15 0z m-136 -3 c-2 -1 -13
-9 -24 -17 -19 -14 -19 -14 -6 3 7 9 18 17 24 17 6 0 8 -1 6 -3z m-54 -36 c-3
-6 -13 -11 -21 -11 -8 0 -14 -5 -14 -12 0 -6 -3 -8 -6 -5 -9 9 16 38 27 31 5
-3 9 0 9 7 0 7 3 10 6 6 3 -3 3 -10 -1 -16z m149 1 c-5 -17 -64 -58 -64 -44 0
5 59 60 67 62 0 0 -1 -8 -3 -18z m-87 -12 c-14 -11 -29 -20 -34 -20 -11 1 37
40 49 40 6 0 -1 -9 -15 -20z m2123 0 c0 -5 -4 -10 -10 -10 -5 0 -10 5 -10 10
0 6 5 10 10 10 6 0 10 -4 10 -10z m367 -36 c-1 -2 -13 -1 -26 3 -16 4 -19 8
-10 14 12 7 45 -9 36 -17z m148 -20 c11 -8 27 -14 37 -14 10 0 18 -4 18 -10 0
-13 -61 -13 -96 0 -15 6 -42 11 -59 12 -26 1 -31 5 -28 19 3 10 12 20 22 22
21 4 81 -12 106 -29z m117 -62 c21 -17 15 -32 -13 -32 -11 0 -17 5 -14 10 3 6
-3 10 -14 10 -25 0 -38 19 -21 30 15 10 38 3 62 -18z m-3464 -8 c13 -9 22 -26
22 -41 0 -77 138 -263 195 -263 17 0 20 -16 4 -25 -18 -12 -142 16 -205 47
-34 16 -73 42 -88 58 -14 17 -30 30 -35 30 -17 0 -31 63 -25 112 6 45 10 51
45 66 22 9 39 20 39 24 0 13 24 9 48 -8z m3602 6 c0 -5 -2 -10 -4 -10 -3 0 -8
5 -11 10 -3 6 -1 10 4 10 6 0 11 -4 11 -10z m-490 -42 c25 -42 25 -58 0 -58
-19 0 -27 11 -44 68 -11 35 21 28 44 -10z m-2480 -2 c0 -7 -7 -19 -15 -26 -16
-13 -20 -3 -9 24 8 20 24 21 24 2z m-100 -6 c0 -5 -2 -10 -4 -10 -3 0 -8 5
-11 10 -3 6 -1 10 4 10 6 0 11 -4 11 -10z m125 -41 c-4 -11 -2 -19 6 -19 9 0
8 -4 -1 -15 -10 -12 -10 -15 4 -15 9 0 16 -8 16 -20 0 -11 5 -20 10 -20 7 0 7
-6 2 -17 -5 -10 -7 -24 -5 -30 3 -8 -4 -14 -16 -14 -40 -3 -44 -4 -49 -18 -3
-8 0 -11 7 -7 6 4 11 3 11 -2 0 -11 -4 -12 -103 -40 -74 -21 -93 -14 -55 21
25 23 108 132 108 142 0 3 11 23 25 46 25 39 51 45 40 8z m2002 -74 c5 -66 43
-150 92 -203 17 -18 31 -35 31 -37 0 -1 -19 1 -42 7 -95 21 -169 49 -198 75
-28 25 -30 31 -24 68 7 43 29 75 51 75 11 0 13 8 8 30 -5 23 -3 30 9 30 8 0
18 -5 22 -12 5 -7 10 -4 16 11 14 39 31 18 35 -44z m478 34 c10 -14 1 -21 -19
-13 -9 3 -13 10 -10 15 7 12 21 11 29 -2z m-634 -120 c-9 -22 -10 -22 -10 -3
-1 11 2 24 6 27 12 12 14 0 4 -24z m-2691 -99 c0 -5 -4 -10 -10 -10 -5 0 -10
5 -10 10 0 6 5 10 10 10 6 0 10 -4 10 -10z m140 -30 c-20 -13 -33 -13 -25 0 3
6 14 10 23 10 15 0 15 -2 2 -10z m1033 -29 c2 -10 -1 -25 -8 -34 -11 -16 -13
-15 -29 2 -17 19 -17 19 3 14 15 -4 21 -1 21 11 0 9 -4 16 -10 16 -5 0 -10 4
-10 10 0 16 28 0 33 -19z m-79 -10 c3 -4 -3 -18 -13 -30 -24 -28 -36 -12 -13
17 20 25 19 25 26 13z m-797 -7 c-3 -3 -12 -4 -19 -1 -8 3 -5 6 6 6 11 1 17
-2 13 -5z m67 -9 c-6 -16 -24 -21 -24 -7 0 11 11 22 21 22 5 0 6 -7 3 -15z
m23 -27 c-3 -7 -5 -2 -5 12 0 14 2 19 5 13 2 -7 2 -19 0 -25z m47 6 c3 -8 2
-12 -4 -9 -6 3 -10 10 -10 16 0 14 7 11 14 -7z m2296 -24 c0 -5 15 -10 33 -11
17 0 41 -4 52 -9 18 -7 18 -8 -8 -15 -22 -6 -25 -10 -16 -21 14 -17 -7 -20
-31 -4 -16 10 -15 11 15 29 19 10 18 11 -5 6 -16 -3 -34 2 -50 15 -20 16 -22
20 -7 20 9 0 17 -4 17 -10z m220 -24 c0 -2 -7 -6 -15 -10 -8 -3 -15 -1 -15 4
0 6 7 10 15 10 8 0 15 -2 15 -4z m-115 -26 c3 -5 2 -10 -4 -10 -5 0 -13 5 -16
10 -3 6 -2 10 4 10 5 0 13 -4 16 -10z m1450 -500 c3 -5 1 -10 -4 -10 -6 0 -11
5 -11 10 0 6 2 10 4 10 3 0 8 -4 11 -10z m-4380 -1934 c14 6 17 4 12 -9 -3 -8
-1 -18 6 -21 7 -3 -1 -3 -17 -1 -35 5 -51 19 -41 35 6 9 9 9 15 1 4 -7 15 -9
25 -5z m4195 -98 c5 -13 9 -19 9 -14 2 20 31 -18 31 -40 0 -24 14 -32 25 -14
10 16 19 11 33 -17 16 -35 15 -40 -4 -47 -12 -5 -14 -1 -9 15 5 15 3 20 -6 17
-8 -3 -14 -11 -14 -19 0 -13 -8 -24 -62 -81 -9 -10 -23 -18 -30 -18 -19 0 -28
29 -16 49 6 9 7 25 2 36 -9 25 -11 139 -2 148 13 14 34 6 43 -15z m-4047 -45
c7 -9 5 -13 -6 -13 -17 0 -30 27 -20 43 4 7 8 6 11 -3 3 -8 9 -21 15 -27z
m4071 -279 c4 -9 1 -23 -5 -30 -6 -7 -8 -17 -5 -22 3 -5 -3 -20 -14 -32 -14
-16 -20 -19 -21 -9 -6 49 -4 86 4 97 13 17 34 15 41 -4z m-4157 -96 c-3 -8 -6
-5 -6 6 -1 11 2 17 5 13 3 -3 4 -12 1 -19z m44 -19 c13 -7 18 -16 14 -27 -3
-9 -3 -13 1 -10 10 11 36 -20 28 -33 -5 -9 -10 -8 -18 3 -6 8 -21 18 -34 22
-12 4 -22 12 -22 18 0 5 7 8 15 4 8 -3 15 -1 15 4 0 6 -7 10 -15 10 -8 0 -15
5 -15 10 0 13 6 13 31 -1z m4094 -49 c-3 -5 0 -10 8 -10 10 0 17 -16 22 -46 5
-38 3 -52 -12 -72 -33 -44 -39 -37 -38 40 1 66 8 98 21 98 3 0 2 -4 -1 -10z
m-3980 -50 c3 -5 1 -10 -4 -10 -6 0 -11 5 -11 10 0 6 2 10 4 10 3 0 8 -4 11
-10z m79 -18 c2 -4 -5 -9 -17 -9 -17 -2 -19 0 -7 7 18 12 18 12 24 2z m3456
-22 c0 -5 -2 -10 -4 -10 -3 0 -8 5 -11 10 -3 6 -1 10 4 10 6 0 11 -4 11 -10z
m726 -68 c-15 -15 -16 -15 -16 1 0 9 6 26 13 38 12 20 12 20 15 -2 2 -12 -3
-29 -12 -37z m-4356 -207 c0 -12 -5 -11 -24 6 -14 12 -22 28 -19 36 4 11 9 10
24 -6 11 -11 19 -27 19 -36z m-50 -87 c0 -35 -25 -18 -27 18 -2 33 -1 34 12
18 8 -11 15 -27 15 -36z m100 48 c0 -3 -4 -8 -10 -11 -5 -3 -10 -1 -10 4 0 6
5 11 10 11 6 0 10 -2 10 -4z m3570 -26 c0 -5 -4 -10 -10 -10 -5 0 -10 5 -10
10 0 6 5 10 10 10 6 0 10 -4 10 -10z m30 -30 c0 -9 -31 -23 -37 -16 -3 3 1 11
8 19 14 15 29 13 29 -3z m-4530 -50 c0 -5 -5 -10 -11 -10 -5 0 -7 5 -4 10 3 6
8 10 11 10 2 0 4 -4 4 -10z m93 -27 c-7 -2 -13 -9 -13 -15 0 -6 7 -7 16 -4 8
3 12 2 9 -4 -3 -6 -1 -10 5 -10 6 0 8 -5 4 -11 -3 -6 0 -15 7 -20 7 -4 10 -11
6 -16 -10 -10 -56 47 -57 70 0 10 7 17 18 16 10 0 12 -3 5 -6z m5904 -55 c-12
-24 -17 -28 -17 -13 0 37 12 67 23 56 7 -7 5 -21 -6 -43z m-5264 35 c-7 -2
-19 -2 -25 0 -7 3 -2 5 12 5 14 0 19 -2 13 -5z m-4706 -45 c-1 -15 3 -23 13
-23 10 0 14 8 12 25 -2 24 -2 24 12 5 8 -11 12 -24 8 -30 -11 -17 -13 -75 -2
-75 5 0 10 -4 10 -10 0 -5 -11 -10 -25 -10 -18 0 -25 5 -25 19 0 11 5 23 10
26 15 9 12 35 -4 35 -8 0 -16 -3 -19 -7 -2 -5 -2 -3 -1 4 2 7 -1 15 -6 18 -6
4 -5 14 3 25 15 25 17 25 14 -2z m-4760 -30 c-3 -7 -5 -2 -5 12 0 14 2 19 5
13 2 -7 2 -19 0 -25z m18 -63 c-2 -19 0 -35 5 -35 6 0 10 -5 10 -11 0 -6 -7
-9 -15 -5 -9 3 -15 0 -15 -8 0 -9 7 -12 20 -9 14 4 20 0 20 -10 0 -14 28 -37
44 -37 14 0 4 19 -11 23 -14 4 -12 5 5 6 15 1 22 -5 22 -18 0 -13 9 -21 30
-26 23 -5 32 -14 40 -43 5 -20 10 -44 11 -52 0 -8 5 -4 12 10 11 24 11 24 15
-12 2 -21 7 -38 11 -38 5 0 6 -11 3 -25 -5 -26 6 -33 25 -14 12 12 33 4 33
-11 0 -5 -8 -16 -17 -26 -17 -17 -16 -17 11 -10 23 6 32 2 52 -21 13 -15 21
-29 18 -32 -3 -3 -9 1 -14 9 -7 12 -12 12 -21 3 -10 -10 -9 -14 4 -19 9 -3 17
-14 18 -23 0 -10 2 -11 6 -3 7 18 23 14 23 -6 0 -26 -11 -34 -27 -21 -8 7 -13
8 -13 1 0 -5 7 -13 16 -16 10 -4 13 -13 9 -25 -3 -11 -1 -22 5 -26 5 -3 10 0
10 7 0 8 7 23 15 34 14 18 14 16 10 -20 -4 -38 -4 -38 25 -32 35 6 41 -9 8
-18 -18 -4 -20 -8 -10 -18 6 -6 12 -23 12 -37 l0 -24 19 21 c20 24 31 28 31
12 0 -15 -33 -50 -42 -44 -4 3 -8 0 -8 -5 0 -6 9 -11 20 -11 11 0 20 5 20 10
0 6 9 1 20 -10 21 -21 40 -26 40 -11 0 5 -9 11 -20 14 -22 6 -27 32 -9 43 7 4
9 0 5 -14 -5 -15 -1 -21 19 -26 30 -8 37 -49 8 -44 -11 2 -18 -3 -18 -12 0 -9
7 -14 18 -12 9 2 17 -2 17 -8 0 -5 -5 -10 -12 -10 -6 0 -9 -2 -6 -5 9 -10 38
7 38 22 0 12 2 12 16 -1 8 -9 23 -16 32 -16 13 0 14 -2 3 -12 -11 -10 -14 -10
-18 0 -3 6 -12 12 -21 12 -25 -1 24 -40 49 -40 10 0 19 -5 19 -11 0 -7 10 -9
28 -5 l27 6 -24 -20 c-23 -20 -77 -29 -66 -10 3 6 -1 7 -10 4 -14 -6 -14 -8 2
-24 13 -12 20 -14 26 -6 6 8 10 7 14 -1 7 -18 24 -16 17 2 -7 18 0 19 27 3 17
-10 23 -10 26 0 3 6 9 12 15 12 6 0 7 -7 4 -16 -3 -8 -2 -12 4 -9 12 8 13 -5
1 -24 -8 -12 -12 -12 -25 -2 -11 9 -16 10 -16 2 0 -6 3 -12 8 -12 35 -6 54 -5
58 5 6 14 44 19 44 5 0 -6 -14 -15 -30 -20 -16 -6 -30 -15 -30 -21 0 -6 7 -7
15 -4 8 3 22 9 30 12 10 4 15 0 15 -10 0 -9 -7 -16 -15 -16 -8 0 -15 -7 -15
-15 0 -8 5 -15 10 -15 6 0 10 5 10 11 0 6 6 9 13 6 6 -2 11 -11 9 -19 -1 -9 7
-18 18 -21 26 -7 26 -27 0 -27 -11 0 -20 5 -20 12 0 6 -2 9 -5 7 -2 -3 -2 -14
1 -26 6 -23 36 -21 65 4 15 12 17 11 22 -14 3 -16 0 -31 -6 -35 -9 -5 -7 -16
6 -38 10 -16 13 -30 8 -30 -6 0 -11 4 -11 8 0 5 -9 20 -21 33 -17 19 -22 21
-29 9 -12 -19 -13 -33 -1 -26 5 3 14 0 20 -8 13 -16 -4 -26 -45 -26 -35 0 -30
-17 6 -18 17 0 30 4 30 9 0 12 27 12 35 -1 3 -6 -2 -13 -12 -17 -27 -10 -45
-31 -38 -43 4 -7 -2 -9 -19 -4 -16 4 -26 2 -26 -5 0 -6 -7 -11 -15 -11 -8 0
-15 -4 -15 -10 0 -5 -7 -10 -15 -10 -8 0 -15 -5 -15 -11 0 -5 -4 -7 -10 -4 -5
3 -10 1 -10 -5 0 -7 -8 -9 -20 -5 -14 5 -20 2 -20 -9 0 -9 8 -16 19 -16 10 0
22 -7 25 -16 5 -14 4 -15 -8 -5 -14 12 -46 5 -46 -9 0 -5 6 -11 13 -13 7 -4 6
-6 -5 -6 -9 -1 -18 4 -20 11 -3 8 -14 7 -38 -5 -42 -22 -43 -21 -35 6 7 22 7
22 -9 2 -15 -20 -15 -20 -16 3 0 12 -4 22 -9 22 -6 0 -7 -16 -4 -36 6 -37 6
-37 -23 -30 -19 4 -24 3 -15 -3 15 -10 6 -35 -10 -26 -18 12 -8 -18 13 -36 11
-11 16 -19 10 -19 -6 0 -18 7 -27 16 -20 20 -45 3 -45 -32 0 -26 -10 -30 -28
-12 -6 6 -15 9 -18 5 -9 -8 36 -46 55 -47 11 0 11 -3 1 -15 -7 -8 -18 -15 -25
-15 -14 0 -29 -29 -20 -39 3 -3 15 0 25 7 17 11 20 10 20 -8 0 -16 -5 -19 -30
-13 -21 4 -30 2 -30 -8 0 -10 -3 -10 -12 -1 -7 7 -17 12 -22 12 -6 0 -5 -5 2
-12 7 -7 12 -18 12 -26 0 -12 -3 -12 -15 -2 -19 15 -20 -1 -4 -33 7 -12 8 -19
4 -15 -4 4 -18 -5 -31 -20 -14 -17 -23 -22 -24 -13 0 8 7 23 17 33 13 14 13
18 2 18 -21 0 -42 -50 -27 -67 6 -7 8 -17 4 -20 -10 -10 -26 17 -26 44 0 19
-3 20 -25 10 -17 -8 -23 -18 -19 -29 4 -15 -1 -18 -26 -18 -27 0 -32 3 -27 20
4 15 0 20 -16 20 -13 0 -17 -3 -11 -8 12 -8 26 -42 17 -42 -3 0 -11 7 -17 16
-11 14 -13 14 -25 0 -11 -14 -11 -16 4 -16 10 0 16 -3 12 -6 -3 -3 -15 -3 -26
1 -20 6 -19 32 3 47 6 4 8 10 4 13 -8 8 -39 -37 -42 -62 -2 -10 -10 -19 -19
-21 -18 -4 -24 14 -6 20 12 4 1 38 -13 38 -6 0 -5 -7 2 -16 11 -13 10 -16 -8
-21 -13 -3 -22 -13 -22 -25 0 -11 -5 -18 -12 -15 -8 2 -14 24 -15 53 -2 27 -4
78 -7 114 -10 160 -14 1136 -5 1335 5 121 10 248 10 283 2 45 6 62 15 62 8 0
14 5 14 10 0 6 2 10 5 10 3 0 3 -16 0 -35z m4515 25 c0 -5 -4 -10 -10 -10 -5
0 -10 5 -10 10 0 6 5 10 10 10 6 0 10 -4 10 -10z m10250 0 c0 -5 -4 -10 -10
-10 -5 0 -10 5 -10 10 0 6 5 10 10 10 6 0 10 -4 10 -10z m-93 -42 c-3 -7 -5
-2 -5 12 0 14 2 19 5 13 2 -7 2 -19 0 -25z m-9772 3 c-3 -6 -11 -11 -16 -11
-5 0 -4 6 3 14 14 16 24 13 13 -3z m8892 -3 c-3 -8 -6 -5 -6 6 -1 11 2 17 5
13 3 -3 4 -12 1 -19z m973 -37 c0 -22 -6 -44 -15 -51 -13 -11 -15 -7 -15 23 0
19 3 42 6 51 11 29 24 17 24 -23z m-81 -42 c1 -33 -21 -44 -38 -18 -9 16 -8
25 6 50 15 25 19 27 25 12 3 -10 7 -30 7 -44z m-14599 41 c-8 -5 -19 -10 -25
-10 -5 0 -3 5 5 10 8 5 20 10 25 10 6 0 3 -5 -5 -10z m7803 -19 c-2 -12 3 -21
11 -21 12 0 12 -6 3 -30 -13 -33 -27 -40 -27 -12 -1 15 -2 15 -13 1 -16 -21
-36 -13 -30 12 5 16 8 18 14 7 7 -10 9 -9 9 5 0 9 -4 17 -10 17 -5 0 -10 4
-10 10 0 5 7 7 15 4 11 -4 15 0 15 16 0 13 5 20 13 17 6 -2 11 -14 10 -26z
m1267 9 c0 -5 -2 -10 -4 -10 -3 0 -8 5 -11 10 -3 6 -1 10 4 10 6 0 11 -4 11
-10z m-9030 -10 c0 -5 -4 -10 -10 -10 -5 0 -10 5 -10 10 0 6 5 10 10 10 6 0
10 -4 10 -10z m4835 0 c3 -5 -1 -10 -10 -10 -9 0 -13 5 -10 10 3 6 8 10 10 10
2 0 7 -4 10 -10z m4165 -26 c0 -12 -2 -12 -14 -2 -8 7 -12 16 -9 21 7 11 23
-2 23 -19z m-8983 -10 c-3 -3 -12 -4 -19 -1 -8 3 -5 6 6 6 11 1 17 -2 13 -5z
m9138 -24 c-3 -5 -13 -10 -21 -10 -8 0 -14 5 -14 10 0 6 9 10 21 10 11 0 17
-4 14 -10z m-4865 -22 c0 -4 -4 -8 -9 -8 -6 0 -12 4 -15 8 -3 5 1 9 9 9 8 0
15 -4 15 -9z m2955 -116 c-3 -3 -11 0 -18 7 -9 10 -8 11 6 5 10 -3 15 -9 12
-12z m7342 -4 c-3 -8 -6 -5 -6 6 -1 11 2 17 5 13 3 -3 4 -12 1 -19z m-7660 6
c-3 -3 -12 -4 -19 -1 -8 3 -5 6 6 6 11 1 17 -2 13 -5z m-1922 -24 c3 -5 1 -10
-4 -10 -6 0 -11 5 -11 10 0 6 2 10 4 10 3 0 8 -4 11 -10z m1946 -21 c-25 -21
-42 -21 -49 -1 -2 7 2 10 11 6 8 -3 18 -1 22 5 3 6 14 11 23 11 14 -1 12 -5
-7 -21z m7699 -2 c0 -13 -9 -32 -19 -41 -11 -10 -23 -31 -26 -47 -4 -16 -10
-27 -15 -24 -5 3 -10 -1 -13 -7 -2 -7 -7 -10 -11 -7 -10 10 22 95 47 123 28
32 37 33 37 3z m-7973 -9 c-3 -8 -6 -5 -6 6 -1 11 2 17 5 13 3 -3 4 -12 1 -19z
m617 6 c9 -22 -3 -32 -14 -14 -12 19 -12 30 -1 30 5 0 12 -7 15 -16z m653 -6
c-3 -8 -6 -5 -6 6 -1 11 2 17 5 13 3 -3 4 -12 1 -19z m-1070 -14 c-3 -3 -12
-4 -19 -1 -8 3 -5 6 6 6 11 1 17 -2 13 -5z m-2724 -41 c-7 -2 -21 -2 -30 0
-10 3 -4 5 12 5 17 0 24 -2 18 -5z m2292 -33 c3 -5 1 -10 -4 -10 -6 0 -11 5
-11 10 0 6 2 10 4 10 3 0 8 -4 11 -10z m-1268 -6 c-3 -3 -12 -4 -19 -1 -8 3
-5 6 6 6 11 1 17 -2 13 -5z m68 -74 c3 -5 1 -10 -4 -10 -6 0 -11 5 -11 10 0 6
2 10 4 10 3 0 8 -4 11 -10z m52 -16 c-3 -3 -12 -4 -19 -1 -8 3 -5 6 6 6 11 1
17 -2 13 -5z m2188 -14 c3 -5 1 -10 -4 -10 -6 0 -11 5 -11 10 0 6 2 10 4 10 3
0 8 -4 11 -10z m-7128 -22 c-3 -8 -6 -5 -6 6 -1 11 2 17 5 13 3 -3 4 -12 1
-19z m4995 -10 c-7 -7 -12 -8 -12 -2 0 14 12 26 19 19 2 -3 -1 -11 -7 -17z
m88 -8 c0 -5 -4 -10 -10 -10 -5 0 -10 5 -10 10 0 6 5 10 10 10 6 0 10 -4 10
-10z m-5120 -10 c0 -5 -5 -10 -11 -10 -5 0 -7 5 -4 10 3 6 8 10 11 10 2 0 4
-4 4 -10z m3805 0 c3 -5 1 -10 -4 -10 -6 0 -11 5 -11 10 0 6 2 10 4 10 3 0 8
-4 11 -10z m1355 0 c0 -5 -5 -10 -11 -10 -5 0 -7 5 -4 10 3 6 8 10 11 10 2 0
4 -4 4 -10z m-83 -6 c-3 -3 -12 -4 -19 -1 -8 3 -5 6 6 6 11 1 17 -2 13 -5z
m996 -1 c-7 -2 -21 -2 -30 0 -10 3 -4 5 12 5 17 0 24 -2 18 -5z m-53 -12 c0
-5 3 -17 7 -27 4 -11 2 -15 -7 -12 -16 5 -24 48 -10 48 6 0 10 -4 10 -9z m-40
-5 c0 -3 -4 -8 -10 -11 -5 -3 -10 -1 -10 4 0 6 5 11 10 11 6 0 10 -2 10 -4z
m-2220 -21 c0 -8 -4 -15 -10 -15 -5 0 -10 7 -10 15 0 8 5 15 10 15 6 0 10 -7
10 -15z m-3680 -15 c0 -5 -5 -10 -11 -10 -5 0 -7 5 -4 10 3 6 8 10 11 10 2 0
4 -4 4 -10z m7560 -46 c0 -12 -2 -12 -14 -2 -8 7 -12 16 -9 21 7 11 23 -2 23
-19z m-7510 -14 c0 -5 -4 -10 -10 -10 -5 0 -10 5 -10 10 0 6 5 10 10 10 6 0
10 -4 10 -10z m5821 -17 c-8 -15 -10 -15 -11 -2 0 17 10 32 18 25 2 -3 -1 -13
-7 -23z m79 18 c0 -16 -30 -33 -47 -27 -15 6 -14 9 7 21 31 16 40 18 40 6z
m-190 -41 c0 -5 -4 -10 -10 -10 -5 0 -10 5 -10 10 0 6 5 10 10 10 6 0 10 -4
10 -10z m-5640 -37 c0 -7 -4 -13 -10 -13 -5 0 -10 12 -10 28 0 21 2 24 10 12
5 -8 10 -21 10 -27z m5487 31 c-3 -3 -12 -4 -19 -1 -8 3 -5 6 6 6 11 1 17 -2
13 -5z m53 -26 c0 -19 -2 -20 -10 -8 -13 19 -13 30 0 30 6 0 10 -10 10 -22z
m-2030 -8 c0 -5 -7 -10 -15 -10 -8 0 -15 5 -15 10 0 6 7 10 15 10 8 0 15 -4
15 -10z m1786 -16 c-9 -9 -20 -14 -23 -10 -4 3 2 13 13 20 25 18 31 12 10 -10z
m344 16 c0 -5 -7 -10 -15 -10 -8 0 -15 5 -15 10 0 6 7 10 15 10 8 0 15 -4 15
-10z m-5570 -20 c0 -5 -5 -10 -11 -10 -5 0 -7 5 -4 10 3 6 8 10 11 10 2 0 4
-4 4 -10z m5130 -6 c0 -8 -5 -12 -10 -9 -6 4 -8 11 -5 16 9 14 15 11 15 -7z
m387 -26 c-3 -7 -5 -2 -5 12 0 14 2 19 5 13 2 -7 2 -19 0 -25z m-320 -25 c-3
-10 -5 -4 -5 12 0 17 2 24 5 18 2 -7 2 -21 0 -30z m-5230 21 c-3 -3 -12 -4
-19 -1 -8 3 -5 6 6 6 11 1 17 -2 13 -5z m5510 0 c-3 -3 -12 -4 -19 -1 -8 3 -5
6 6 6 11 1 17 -2 13 -5z m1831 -5 c-2 -6 -8 -10 -13 -10 -5 0 -11 4 -13 10 -2
6 4 11 13 11 9 0 15 -5 13 -11z m-1743 -19 c-3 -5 -10 -10 -16 -10 -5 0 -9 5
-9 10 0 6 7 10 16 10 8 0 12 -4 9 -10z m-281 -33 c-3 -9 -11 -17 -16 -17 -6 0
-7 7 -4 16 3 9 6 21 6 27 0 8 3 8 10 1 6 -6 8 -18 4 -27z m191 13 c3 -5 1 -10
-4 -10 -6 0 -11 5 -11 10 0 6 2 10 4 10 3 0 8 -4 11 -10z m125 -6 c0 -8 -5
-12 -10 -9 -6 4 -8 11 -5 16 9 14 15 11 15 -7z m-236 -9 c-4 -8 -10 -12 -15
-9 -14 8 -10 24 6 24 9 0 12 -6 9 -15z m216 -11 c0 -2 -9 -4 -21 -4 -11 0 -18
4 -14 10 5 8 35 3 35 -6z m-258 -9 c0 -5 -5 -11 -11 -13 -6 -2 -11 4 -11 13 0
9 5 15 11 13 6 -2 11 -8 11 -13z m115 9 c-3 -3 -12 -4 -19 -1 -8 3 -5 6 6 6
11 1 17 -2 13 -5z m53 -19 c0 -8 -4 -15 -10 -15 -5 0 -10 7 -10 15 0 8 5 15
10 15 6 0 10 -7 10 -15z m100 -5 c-8 -5 -19 -10 -25 -10 -5 0 -3 5 5 10 8 5
20 10 25 10 6 0 3 -5 -5 -10z m-5475 -10 c-3 -5 -12 -7 -20 -3 -21 7 -19 13 6
13 11 0 18 -4 14 -10z m5425 -14 c0 -3 -4 -8 -10 -11 -5 -3 -10 -1 -10 4 0 6
5 11 10 11 6 0 10 -2 10 -4z m1850 -86 c0 -5 -4 -10 -10 -10 -5 0 -10 5 -10
10 0 6 5 10 10 10 6 0 10 -4 10 -10z m202 -162 c-7 -7 -12 -8 -12 -2 0 14 12
26 19 19 2 -3 -1 -11 -7 -17z m-7406 -25 c-10 -10 -19 5 -10 18 6 11 8 11 12
0 2 -7 1 -15 -2 -18z m12714 -7 c0 -3 -4 -8 -10 -11 -5 -3 -10 -1 -10 4 0 6 5
11 10 11 6 0 10 -2 10 -4z m-12785 -26 c3 -5 -1 -10 -9 -10 -9 0 -16 5 -16 10
0 6 4 10 9 10 6 0 13 -4 16 -10z m-32 -20 c3 -11 1 -18 -4 -14 -5 3 -9 12 -9
20 0 20 7 17 13 -6z m12813 -18 c-28 -27 -28 -27 -15 -2 15 28 31 42 38 34 3
-2 -8 -17 -23 -32z m-12869 -22 c3 -10 2 -11 -4 -4 -4 6 -15 14 -23 17 -11 5
-9 6 4 4 11 -1 21 -9 23 -17z m-114 -63 c3 -7 -3 -13 -14 -13 -13 0 -15 3 -7
13 6 7 12 13 13 13 2 0 5 -6 8 -13z m122 3 c3 -5 1 -10 -4 -10 -6 0 -11 5 -11
10 0 6 2 10 4 10 3 0 8 -4 11 -10z m-181 -25 c4 -10 -1 -15 -14 -15 -20 0 -26
11 -13 23 10 11 20 8 27 -8z m-44 -29 c0 -3 -4 -8 -10 -11 -5 -3 -10 -1 -10 4
0 6 5 11 10 11 6 0 10 -2 10 -4z m-43 -88 c-3 -8 -6 -5 -6 6 -1 11 2 17 5 13
3 -3 4 -12 1 -19z m3200 -90 c-3 -8 -6 -5 -6 6 -1 11 2 17 5 13 3 -3 4 -12 1
-19z m-3288 -93 c0 -5 -4 -3 -9 5 -5 8 -9 22 -9 30 0 16 17 -16 18 -35z m36
35 c3 -5 1 -10 -4 -10 -6 0 -11 5 -11 10 0 6 2 10 4 10 3 0 8 -4 11 -10z m-46
-80 c0 -8 -6 0 -14 19 -8 18 -15 36 -15 40 1 13 29 -45 29 -59z m3296 40 c3
-5 1 -10 -4 -10 -6 0 -11 5 -11 10 0 6 2 10 4 10 3 0 8 -4 11 -10z m-35 -70
c0 -5 -5 -10 -11 -10 -5 0 -7 5 -4 10 3 6 8 10 11 10 2 0 4 -4 4 -10z m137
-22 c-3 -8 -6 -5 -6 6 -1 11 2 17 5 13 3 -3 4 -12 1 -19z m-3583 0 c-4 -6 0
-14 7 -19 7 -4 10 -11 6 -15 -3 -4 -16 4 -27 17 -16 20 -21 22 -29 9 -6 -8
-13 -11 -18 -7 -4 5 -1 12 6 16 19 12 62 11 55 -1z m46 8 c0 -3 -4 -8 -10 -11
-5 -3 -10 -1 -10 4 0 6 5 11 10 11 6 0 10 -2 10 -4z m3449 -46 c4 0 12 5 19
12 9 9 12 8 12 -4 0 -10 -10 -18 -22 -20 -17 -2 -22 -9 -20 -23 2 -13 0 -16
-6 -10 -5 6 -6 30 -3 55 4 34 6 39 9 18 2 -16 7 -28 11 -28z m61 10 c0 -5 -5
-10 -11 -10 -5 0 -7 5 -4 10 3 6 8 10 11 10 2 0 4 -4 4 -10z m26 -17 c-10 -10
-19 5 -10 18 6 11 8 11 12 0 2 -7 1 -15 -2 -18z m-3666 13 c0 -3 -4 -8 -10
-11 -5 -3 -10 -1 -10 4 0 6 5 11 10 11 6 0 10 -2 10 -4z m37 -18 c-3 -8 -6 -5
-6 6 -1 11 2 17 5 13 3 -3 4 -12 1 -19z m-127 2 c0 -5 -4 -10 -10 -10 -5 0
-10 5 -10 10 0 6 5 10 10 10 6 0 10 -4 10 -10z m3620 0 c0 -5 -7 -10 -15 -10
-8 0 -15 5 -15 10 0 6 7 10 15 10 8 0 15 -4 15 -10z m-41 -45 c0 -5 -6 -1 -14
9 -8 11 -15 24 -15 30 0 5 7 1 15 -10 8 -10 14 -23 14 -29z m149 23 c-2 -7 5
-12 15 -11 15 1 17 -4 13 -22 -4 -17 -1 -27 11 -34 17 -10 17 -10 1 -11 -20 0
-13 -30 6 -30 7 0 18 -11 24 -25 9 -20 9 -25 -2 -25 -8 0 -16 6 -19 13 -2 7
-8 8 -13 3 -5 -5 -4 -11 4 -13 25 -9 10 -118 -20 -134 -17 -9 -18 -7 -12 17 5
18 3 25 -4 20 -6 -3 -13 -2 -16 3 -4 5 -2 12 4 16 16 10 12 35 -6 35 -10 0
-14 -6 -11 -14 4 -10 -8 -15 -44 -20 -27 -4 -49 -11 -49 -16 0 -6 -7 -10 -16
-10 -11 0 -15 -6 -11 -20 3 -11 2 -20 -3 -20 -4 0 -10 13 -12 29 -2 17 -2 28
2 26 3 -2 12 0 20 6 12 7 11 9 -5 10 -11 0 -14 3 -7 6 6 2 12 9 12 15 0 6 -7
7 -16 4 -10 -4 -14 -1 -11 6 2 7 14 12 26 11 11 -2 21 2 21 7 0 6 -4 10 -10
10 -19 0 -10 15 23 38 26 18 28 22 12 22 -11 0 -31 -7 -43 -16 -12 -8 -22 -10
-22 -5 0 6 -9 11 -20 11 -11 0 -20 5 -20 10 0 6 7 10 15 10 8 0 15 5 15 11 0
7 17 9 51 4 36 -5 50 -4 45 3 -4 6 -13 9 -21 6 -8 -3 -22 1 -30 10 -15 14 -15
18 -1 31 20 21 29 19 23 -6 -4 -14 -2 -19 8 -16 7 3 18 0 25 -6 10 -10 10 -7
0 12 -10 19 -9 23 2 19 7 -3 18 -23 23 -45 7 -26 15 -38 24 -35 7 2 17 -2 22
-9 6 -9 9 0 9 27 0 22 -7 49 -15 60 -13 17 -14 17 -15 2 0 -10 4 -18 9 -18 5
0 7 -9 4 -20 -7 -28 -20 -25 -27 8 -4 15 -9 36 -12 47 -4 16 -3 17 6 5 9 -13
12 -13 21 3 12 20 20 22 17 5z m-3716 -30 c-8 -8 -9 -4 -5 13 4 13 8 18 11 10
2 -7 -1 -18 -6 -23z m3498 -103 c0 -8 -4 -15 -10 -15 -5 0 -10 7 -10 15 0 8 5
15 10 15 6 0 10 -7 10 -15z m0 -44 c0 -11 -4 -22 -9 -25 -11 -7 -23 22 -15 35
9 16 24 10 24 -10z m-3553 -53 c-3 -7 -5 -2 -5 12 0 14 2 19 5 13 2 -7 2 -19
0 -25z m3524 -21 c-16 -16 -25 -1 -10 16 8 8 16 11 18 5 2 -5 -2 -15 -8 -21z
m69 23 c0 -5 -7 -10 -15 -10 -8 0 -15 5 -15 10 0 6 7 10 15 10 8 0 15 -4 15
-10z m-3350 -14 c0 -3 -4 -8 -10 -11 -5 -3 -10 -1 -10 4 0 6 5 11 10 11 6 0
10 -2 10 -4z m267 -18 c-3 -8 -6 -5 -6 6 -1 11 2 17 5 13 3 -3 4 -12 1 -19z
m-497 2 c0 -5 -4 -10 -10 -10 -5 0 -10 5 -10 10 0 6 5 10 10 10 6 0 10 -4 10
-10z m3727 -26 c-9 -10 -38 16 -31 28 4 6 13 4 22 -6 9 -8 13 -19 9 -22z m113
26 c0 -5 -4 -10 -10 -10 -5 0 -10 5 -10 10 0 6 5 10 10 10 6 0 10 -4 10 -10z
m-3673 -22 c-3 -8 -6 -5 -6 6 -1 11 2 17 5 13 3 -3 4 -12 1 -19z m138 12 c-3
-5 -13 -10 -21 -10 -8 0 -14 5 -14 10 0 6 9 10 21 10 11 0 17 -4 14 -10z m225
0 c0 -5 -4 -10 -10 -10 -5 0 -10 5 -10 10 0 6 5 10 10 10 6 0 10 -4 10 -10z
m3145 -10 c-3 -5 -10 -10 -16 -10 -5 0 -9 5 -9 10 0 6 7 10 16 10 8 0 12 -4 9
-10z m-3335 -4 c0 -3 -4 -8 -10 -11 -5 -3 -10 -1 -10 4 0 6 5 11 10 11 6 0 10
-2 10 -4z m3047 -58 c-3 -8 -6 -5 -6 6 -1 11 2 17 5 13 3 -3 4 -12 1 -19z m93
12 c0 -5 -5 -10 -11 -10 -5 0 -7 5 -4 10 3 6 8 10 11 10 2 0 4 -4 4 -10z m117
4 c-3 -3 -12 -4 -19 -1 -8 3 -5 6 6 6 11 1 17 -2 13 -5z m-2910 -19 c8 -9 12
-19 9 -23 -4 -3 -11 0 -16 8 -7 11 -11 11 -24 1 -17 -14 -19 -11 -10 13 8 20
21 20 41 1z m2681 -40 c-3 -3 -9 2 -12 12 -6 14 -5 15 5 6 7 -7 10 -15 7 -18z
m112 5 c0 -5 -4 -10 -10 -10 -5 0 -10 5 -10 10 0 6 5 10 10 10 6 0 10 -4 10
-10z m280 6 c0 -3 -4 -8 -10 -11 -5 -3 -10 -1 -10 4 0 6 5 11 10 11 6 0 10 -2
10 -4z m-125 -76 c3 -5 1 -10 -4 -10 -6 0 -11 5 -11 10 0 6 2 10 4 10 3 0 8
-4 11 -10z m-92 -95 c-3 -9 -8 -14 -10 -11 -3 3 -2 9 2 15 9 16 15 13 8 -4z
m107 -11 c0 -2 -7 -4 -15 -4 -8 0 -15 4 -15 10 0 5 7 7 15 4 8 -4 15 -8 15
-10z m-2565 -24 c3 -5 1 -10 -4 -10 -6 0 -11 5 -11 10 0 6 2 10 4 10 3 0 8 -4
11 -10z m2475 -84 c0 -3 -4 -8 -10 -11 -5 -3 -10 -1 -10 4 0 6 5 11 10 11 6 0
10 -2 10 -4z m-37 -71 c-3 -9 -8 -14 -10 -11 -3 3 -2 9 2 15 9 16 15 13 8 -4z"/>
<path d="M12516 8661 c-4 -7 -5 -15 -2 -18 9 -9 19 4 14 18 -4 11 -6 11 -12 0z"/>
<path d="M12472 8565 c-14 -31 -15 -35 -3 -35 5 0 11 8 15 18 3 9 9 23 12 30
3 6 2 12 -4 12 -5 0 -14 -11 -20 -25z"/>
<path d="M12352 8259 c-7 -12 -11 -24 -7 -27 7 -8 25 17 25 36 0 17 -3 15 -18
-9z"/>
<path d="M12320 8180 c0 -6 -10 -14 -22 -19 -13 -5 -33 -18 -46 -28 -67 -53
-71 -58 -62 -72 7 -12 20 -3 60 40 36 37 50 47 45 32 -6 -23 8 -32 20 -13 8
13 16 70 10 70 -3 0 -5 -5 -5 -10z"/>
<path d="M12370 8119 c0 -5 5 -7 10 -4 6 3 10 8 10 11 0 2 -4 4 -10 4 -5 0
-10 -5 -10 -11z"/>
<path d="M12340 8100 c0 -5 5 -10 10 -10 6 0 10 5 10 10 0 6 -4 10 -10 10 -5
0 -10 -4 -10 -10z"/>
<path d="M12146 8009 c-15 -17 -27 -32 -24 -34 5 -5 19 5 47 38 33 37 13 34
-23 -4z"/>
<path d="M12159 7944 c-21 -23 -22 -26 -5 -23 10 2 22 14 27 27 11 28 8 28
-22 -4z"/>
<path d="M12073 7934 c-14 -15 -17 -24 -9 -24 13 0 46 31 46 43 0 13 -15 5
-37 -19z"/>
<path d="M12960 8360 c0 -5 5 -10 10 -10 6 0 10 5 10 10 0 6 -4 10 -10 10 -5
0 -10 -4 -10 -10z"/>
<path d="M12787 8085 c-20 -42 -20 -45 -7 -45 6 0 10 7 10 15 0 8 9 23 20 32
23 20 26 33 7 33 -7 0 -21 -16 -30 -35z"/>
<path d="M12686 8044 c-9 -24 -2 -26 12 -4 7 11 8 20 3 20 -5 0 -12 -7 -15
-16z"/>
<path d="M12757 8024 c-4 -4 -7 -14 -7 -23 0 -11 3 -12 11 -4 6 6 10 16 7 23
-2 6 -7 8 -11 4z"/>
<path d="M12733 7947 c-7 -15 -13 -35 -13 -45 0 -13 3 -12 16 6 8 12 14 32 12
44 -3 21 -4 21 -15 -5z"/>
<path d="M12694 7845 c-17 -40 -18 -53 -4 -39 11 11 31 74 24 74 -3 0 -12 -16
-20 -35z"/>
<path d="M12500 7775 c-8 -9 -8 -15 -2 -15 12 0 26 19 19 26 -2 2 -10 -2 -17
-11z"/>
<path d="M12468 7718 c-10 -12 -18 -27 -18 -33 1 -12 40 33 40 46 0 13 -3 11
-22 -13z"/>
<path d="M12273 7667 c-4 -7 -16 -16 -25 -20 -18 -6 -25 -27 -10 -27 13 0 56
49 50 56 -4 3 -10 -1 -15 -9z"/>
<path d="M13088 6978 c9 -9 15 -9 24 0 9 9 7 12 -12 12 -19 0 -21 -3 -12 -12z"/>
<path d="M90 2540 c0 -5 5 -10 10 -10 6 0 10 5 10 10 0 6 -4 10 -10 10 -5 0
-10 -4 -10 -10z"/>
<path d="M135 2530 c-6 -9 1 -14 18 -11 4 0 7 -3 7 -8 0 -5 9 -7 20 -4 11 3
20 0 20 -6 0 -6 -5 -11 -11 -11 -6 0 -3 -7 6 -16 9 -9 19 -13 23 -10 3 4 0 11
-8 16 -13 8 -12 10 3 10 9 0 17 5 17 10 0 6 -7 10 -15 10 -8 0 -15 5 -15 11 0
5 -8 9 -17 7 -10 -1 -23 1 -30 5 -6 4 -14 3 -18 -3z"/>
<path d="M255 2390 c3 -5 8 -10 11 -10 2 0 4 5 4 10 0 6 -5 10 -11 10 -5 0 -7
-4 -4 -10z"/>
<path d="M370 2230 c0 -5 5 -10 10 -10 6 0 10 5 10 10 0 6 -4 10 -10 10 -5 0
-10 -4 -10 -10z"/>
<path d="M430 2091 c0 -5 5 -13 10 -16 6 -3 10 -2 10 4 0 5 -4 13 -10 16 -5 3
-10 2 -10 -4z"/>
<path d="M630 1864 c0 -8 5 -12 10 -9 6 3 10 10 10 16 0 5 -4 9 -10 9 -5 0
-10 -7 -10 -16z"/>
<path d="M650 1800 c0 -5 5 -10 11 -10 5 0 7 5 4 10 -3 6 -8 10 -11 10 -2 0
-4 -4 -4 -10z"/>
<path d="M680 1769 c0 -5 5 -7 10 -4 6 3 10 8 10 11 0 2 -4 4 -10 4 -5 0 -10
-5 -10 -11z"/>
<path d="M755 1720 c3 -5 8 -10 11 -10 2 0 4 5 4 10 0 6 -5 10 -11 10 -5 0 -7
-4 -4 -10z"/>
<path d="M675 1610 c3 -5 8 -10 11 -10 2 0 4 5 4 10 0 6 -5 10 -11 10 -5 0 -7
-4 -4 -10z"/>
<path d="M935 1600 c-3 -5 -2 -10 4 -10 5 0 13 5 16 10 3 6 2 10 -4 10 -5 0
-13 -4 -16 -10z"/>
<path d="M795 1513 c2 -10 4 -24 4 -31 1 -7 6 -10 11 -7 8 5 8 11 0 20 -8 10
-7 16 7 24 17 10 16 10 -4 11 -15 0 -20 -5 -18 -17z"/>
<path d="M842 1466 c1 -10 8 -17 13 -17 15 1 12 24 -3 29 -9 3 -13 -2 -10 -12z"/>
<path d="M727 1435 c3 -8 9 -12 14 -9 12 7 11 11 -5 17 -10 4 -13 1 -9 -8z"/>
<path d="M800 1446 c0 -2 7 -7 16 -10 8 -3 12 -2 9 4 -6 10 -25 14 -25 6z"/>
<path d="M693 1377 l-22 -12 25 -12 c21 -10 26 -9 31 3 9 23 -9 34 -34 21z"/>
<path d="M670 1341 c0 -6 5 -13 10 -16 6 -3 10 1 10 9 0 9 -4 16 -10 16 -5 0
-10 -4 -10 -9z"/>
<path d="M476 1245 c-3 -8 -1 -15 4 -15 6 0 10 7 10 15 0 8 -2 15 -4 15 -2 0
-6 -7 -10 -15z"/>
<path d="M490 1209 c-16 -30 -8 -31 13 -3 10 13 13 24 8 24 -6 0 -15 -9 -21
-21z"/>
<path d="M361 989 c-13 -5 -22 -12 -19 -14 6 -6 58 12 58 20 0 7 -11 5 -39 -6z"/>
<path d="M305 960 c-16 -7 -17 -9 -3 -9 9 -1 20 4 23 9 7 11 7 11 -20 0z"/>
<path d="M3680 700 c0 -5 5 -10 10 -10 6 0 10 5 10 10 0 6 -4 10 -10 10 -5 0
-10 -4 -10 -10z"/>
<path d="M3810 656 c0 -9 7 -16 16 -16 17 0 14 22 -4 28 -7 2 -12 -3 -12 -12z"/>
<path d="M3740 640 c0 -5 5 -10 10 -10 6 0 10 5 10 10 0 6 -4 10 -10 10 -5 0
-10 -4 -10 -10z"/>
<path d="M3805 620 c27 -12 35 -12 35 0 0 6 -12 10 -27 9 -25 0 -26 -1 -8 -9z"/>
<path d="M3752 608 c5 -15 28 -23 28 -10 0 5 -7 13 -16 16 -10 4 -14 1 -12 -6z"/>
<path d="M3725 580 c3 -5 14 -10 23 -10 15 0 15 2 2 10 -20 13 -33 13 -25 0z"/>
<path d="M12220 7805 c-27 -29 -16 -33 19 -6 13 10 19 21 14 24 -6 4 -21 -5
-33 -18z"/>
<path d="M12210 7742 c-100 -102 -140 -137 -140 -124 0 5 13 23 30 40 16 17
27 37 25 45 -3 7 6 24 20 37 26 25 32 40 14 40 -14 0 -69 -62 -69 -78 0 -8
-20 -40 -45 -73 -25 -32 -40 -59 -34 -59 6 0 17 7 25 15 8 8 20 12 27 9 7 -2
42 24 77 58 36 35 87 81 113 102 52 42 77 77 55 75 -7 -1 -51 -40 -98 -87z"/>
<path d="M12035 7720 c-3 -5 -1 -10 4 -10 6 0 11 5 11 10 0 6 -2 10 -4 10 -3
0 -8 -4 -11 -10z"/>
<path d="M11715 7607 c-11 -5 -27 -14 -35 -19 -8 -4 -26 -13 -40 -18 -14 -6
-32 -14 -41 -19 -9 -6 -27 -7 -40 -4 -21 6 -22 5 -11 -10 12 -14 4 -21 -78
-60 -51 -24 -88 -47 -83 -50 6 -4 28 2 49 13 57 29 150 70 158 70 4 0 15 9 24
20 10 11 29 21 43 24 15 2 38 16 53 31 30 30 31 38 1 22z"/>
<path d="M12051 7549 c-11 -12 -25 -18 -31 -14 -6 4 -22 -4 -35 -18 -14 -13
-45 -37 -70 -52 -25 -16 -45 -32 -45 -36 0 -12 135 58 155 81 11 13 34 31 50
41 20 13 24 19 13 19 -10 0 -26 -9 -37 -21z"/>
<path d="M11640 7480 c0 -5 5 -10 10 -10 6 0 10 5 10 10 0 6 -4 10 -10 10 -5
0 -10 -4 -10 -10z"/>
<path d="M11348 7433 c-24 -6 -23 -19 0 -19 10 0 19 6 19 13 0 7 -1 12 -1 12
-1 -1 -9 -3 -18 -6z"/>
<path d="M11385 7368 c-39 -10 -90 -38 -70 -38 13 0 116 37 123 45 7 7 -4 5
-53 -7z"/>
<path d="M11203 7350 c-3 -11 -17 -23 -30 -26 -17 -5 -21 -9 -12 -14 10 -7 9
-14 -5 -34 -19 -29 -4 -36 16 -8 14 21 68 38 68 23 0 -6 11 -6 30 0 33 12 32
30 0 22 -26 -7 -54 26 -38 44 8 10 6 13 -7 13 -9 0 -19 -9 -22 -20z"/>
<path d="M11265 7339 c-12 -19 5 -23 22 -6 16 16 16 17 1 17 -9 0 -20 -5 -23
-11z"/>
<path d="M11325 7300 c-13 -6 -15 -9 -5 -9 8 0 22 4 30 9 18 12 2 12 -25 0z"/>
<path d="M11468 7303 c7 -3 16 -2 19 1 4 3 -2 6 -13 5 -11 0 -14 -3 -6 -6z"/>
<path d="M11845 7300 c-3 -5 1 -10 9 -10 8 0 18 5 21 10 3 6 -1 10 -9 10 -8 0
-18 -4 -21 -10z"/>
<path d="M11059 7267 c-16 -12 -79 -101 -79 -112 0 -3 11 2 25 11 14 9 25 25
25 35 0 25 6 24 38 -6 28 -26 42 -31 42 -15 0 5 21 23 46 40 25 18 43 34 40
37 -2 3 -25 -9 -50 -26 -52 -36 -55 -37 -71 -14 -9 13 -10 23 -3 36 12 24 7
29 -13 14z"/>
<path d="M10897 7181 c-20 -28 -31 -48 -24 -45 19 9 69 73 65 84 -2 6 -20 -12
-41 -39z"/>
<path d="M11763 7183 c-28 -21 -54 -44 -57 -51 -3 -7 21 8 54 34 53 42 66 54
57 54 -1 0 -26 -17 -54 -37z"/>
<path d="M12240 7145 c0 -8 2 -15 4 -15 2 0 6 7 10 15 3 8 1 15 -4 15 -6 0
-10 -7 -10 -15z"/>
<path d="M11136 7135 c4 -8 11 -15 16 -15 6 0 5 6 -2 15 -7 8 -14 15 -16 15
-2 0 -1 -7 2 -15z"/>
<path d="M10949 7122 c-7 -10 -27 -35 -44 -57 -16 -22 -33 -44 -37 -50 -83
-105 -118 -151 -118 -157 0 -21 21 0 75 75 33 45 63 87 67 92 44 53 80 106 76
110 -2 2 -11 -3 -19 -13z"/>
<path d="M12175 7049 c-26 -33 -45 -63 -42 -65 3 -3 10 3 16 14 6 11 17 26 24
34 18 18 59 78 54 78 -2 0 -25 -27 -52 -61z"/>
<path d="M11107 7065 c-9 -19 -15 -35 -12 -35 7 0 37 61 33 66 -3 2 -12 -12
-21 -31z"/>
<path d="M11550 7060 c-13 -8 -12 -10 3 -10 9 0 17 5 17 10 0 12 -1 12 -20 0z"/>
<path d="M10843 7038 c-6 -7 -13 -22 -17 -33 -5 -16 -2 -15 14 5 18 23 25 40
16 40 -2 0 -8 -6 -13 -12z"/>
<path d="M12249 7033 c-32 -39 -44 -57 -32 -50 13 8 57 67 50 67 -2 0 -10 -8
-18 -17z"/>
<path d="M10757 7033 c-4 -3 -7 -11 -7 -17 0 -6 5 -5 12 2 6 6 9 14 7 17 -3 3
-9 2 -12 -2z"/>
<path d="M11458 7033 c6 -2 18 -2 25 0 6 3 1 5 -13 5 -14 0 -19 -2 -12 -5z"/>
<path d="M10695 6971 c-26 -26 -32 -41 -20 -41 3 0 19 16 36 35 37 42 22 47
-16 6z"/>
<path d="M12025 6960 c-3 -5 -2 -10 4 -10 5 0 13 5 16 10 3 6 2 10 -4 10 -5 0
-13 -4 -16 -10z"/>
<path d="M12180 6960 c-9 -6 -10 -10 -3 -10 6 0 15 5 18 10 8 12 4 12 -15 0z"/>
<path d="M10640 6910 c0 -5 5 -10 10 -10 6 0 10 5 10 10 0 6 -4 10 -10 10 -5
0 -10 -4 -10 -10z"/>
<path d="M10855 6900 c-3 -5 -2 -10 4 -10 5 0 13 5 16 10 3 6 2 10 -4 10 -5 0
-13 -4 -16 -10z"/>
<path d="M12111 6888 c-14 -23 -14 -23 8 -4 22 20 25 26 13 26 -4 0 -13 -10
-21 -22z"/>
<path d="M10786 6839 c-11 -11 -20 -29 -21 -41 -1 -13 -5 -31 -10 -40 -5 -13
-3 -18 8 -18 18 0 30 -27 16 -36 -7 -4 -6 -10 0 -18 6 -7 8 -15 5 -18 -7 -7
40 -58 53 -58 5 0 18 9 28 20 10 11 26 20 37 20 10 0 18 4 18 9 0 18 -45 58
-59 53 -9 -3 -11 0 -6 8 5 8 1 18 -10 26 -10 8 -16 17 -12 20 11 11 -14 46
-29 40 -17 -6 -18 6 -3 21 20 20 5 31 -15 12z m29 -59 c3 -5 1 -10 -4 -10 -6
0 -11 5 -11 10 0 6 2 10 4 10 3 0 8 -4 11 -10z m65 -114 c0 -3 -4 -8 -10 -11
-5 -3 -10 -1 -10 4 0 6 5 11 10 11 6 0 10 -2 10 -4z"/>
<path d="M12042 6847 c-17 -22 -33 -57 -25 -56 14 1 54 57 44 63 -5 3 -13 0
-19 -7z"/>
<path d="M10894 6625 c8 -8 18 -15 22 -15 3 0 1 7 -6 15 -7 8 -17 15 -22 15
-5 0 -3 -7 6 -15z"/>
<path d="M13091 6497 c-13 -21 -12 -21 5 -5 10 10 16 20 13 22 -3 3 -11 -5
-18 -17z"/>
<path d="M13240 6441 c0 -6 5 -13 10 -16 6 -3 10 1 10 9 0 9 -4 16 -10 16 -5
0 -10 -4 -10 -9z"/>
<path d="M9490 6430 c0 -5 5 -10 10 -10 6 0 10 5 10 10 0 6 -4 10 -10 10 -5 0
-10 -4 -10 -10z"/>
<path d="M13040 6416 c0 -3 11 -17 25 -32 28 -31 33 -25 9 11 -14 22 -34 34
-34 21z"/>
<path d="M12743 6388 c-19 -25 -24 -38 -15 -38 5 0 17 11 26 25 17 25 7 36
-11 13z"/>
<path d="M12805 6390 c-3 -6 1 -7 9 -4 18 7 21 14 7 14 -6 0 -13 -4 -16 -10z"/>
<path d="M12165 6370 c-3 -5 -1 -10 4 -10 6 0 11 5 11 10 0 6 -2 10 -4 10 -3
0 -8 -4 -11 -10z"/>
<path d="M9440 6360 c0 -5 7 -10 16 -10 8 0 12 5 9 10 -3 6 -10 10 -16 10 -5
0 -9 -4 -9 -10z"/>
<path d="M10720 6340 c0 -5 4 -10 9 -10 6 0 13 5 16 10 3 6 -1 10 -9 10 -9 0
-16 -4 -16 -10z"/>
<path d="M12180 6310 c0 -5 5 -10 10 -10 6 0 10 5 10 10 0 6 -4 10 -10 10 -5
0 -10 -4 -10 -10z"/>
<path d="M10585 6290 c4 -6 11 -8 16 -5 14 9 11 15 -7 15 -8 0 -12 -5 -9 -10z"/>
<path d="M9051 5659 c0 -13 4 -33 9 -44 7 -14 8 -8 3 20 -7 46 -13 59 -12 24z"/>
<path d="M10805 5360 c-4 -6 1 -7 12 -3 17 6 17 6 0 -14 -11 -13 -15 -27 -11
-39 4 -10 4 -16 -1 -12 -10 10 -35 -10 -35 -27 0 -21 52 -15 57 6 3 10 9 16
14 13 13 -8 11 10 -3 24 -9 9 -8 12 5 12 21 0 22 14 1 34 -18 18 -30 20 -39 6z"/>
<path d="M13913 5355 c-9 -25 4 -29 17 -6 7 15 7 21 0 21 -6 0 -13 -7 -17 -15z"/>
<path d="M10750 5300 c0 -5 5 -10 10 -10 6 0 10 5 10 10 0 6 -4 10 -10 10 -5
0 -10 -4 -10 -10z"/>
<path d="M10737 5256 c3 -13 0 -27 -6 -30 -6 -4 -11 -2 -11 5 0 7 -2 10 -5 7
-4 -3 -3 -18 1 -33 5 -20 9 -23 15 -13 6 10 9 10 9 1 0 -7 7 -13 16 -13 12 0
14 5 9 18 -5 9 -10 32 -13 50 -2 17 -8 32 -12 32 -4 0 -5 -11 -3 -24z"/>
<path d="M10780 5210 c0 -5 5 -10 11 -10 5 0 7 5 4 10 -3 6 -8 10 -11 10 -2 0
-4 -4 -4 -10z"/>
<path d="M11708 4753 c-10 -2 -18 -8 -18 -13 0 -12 64 -4 68 9 4 11 -17 13
-50 4z"/>
<path d="M10825 4740 c3 -5 12 -10 19 -10 8 0 13 -8 12 -17 -1 -13 8 -19 28
-21 36 -4 31 15 -10 39 -33 20 -58 24 -49 9z"/>
<path d="M11364 4242 c4 -7 14 -12 22 -12 8 0 14 -5 14 -11 0 -6 7 -9 16 -7
19 4 15 21 -6 24 -8 1 -24 5 -34 9 -14 6 -17 5 -12 -3z"/>
<path d="M10433 3935 l-23 -16 20 -38 c11 -22 25 -45 32 -53 27 -29 38 -56 25
-61 -7 -3 -4 -6 6 -6 10 -1 28 -13 41 -28 l23 -26 26 19 c14 10 25 25 24 33
-1 8 4 16 12 19 8 3 11 0 7 -7 -4 -6 -2 -11 5 -11 7 0 9 -11 5 -35 -7 -33 5
-48 19 -25 10 17 25 11 25 -9 0 -11 -6 -21 -12 -24 -10 -3 -10 -9 -1 -23 11
-19 16 -20 45 -9 15 6 16 2 11 -28 -5 -33 -4 -34 23 -30 42 6 87 -38 78 -75
-7 -26 -6 -27 13 -9 11 9 25 17 31 17 6 0 13 8 15 18 4 16 5 16 6 0 1 -19 21
-25 21 -7 0 6 6 9 13 6 6 -2 11 -14 9 -25 -3 -22 12 -30 23 -12 12 19 26 10
37 -22 l11 -32 28 59 c27 60 28 60 38 32 6 -15 16 -27 22 -27 6 0 8 7 5 16 -4
12 -2 15 9 10 14 -5 21 15 16 49 -1 6 6 1 14 -10 9 -11 14 -28 12 -37 -3 -11
0 -15 9 -11 9 3 14 -2 14 -16 0 -31 17 -25 25 8 5 23 14 31 37 36 21 5 33 3
39 -6 4 -7 25 -14 46 -14 34 0 40 4 56 35 l17 35 -5 -33 c-6 -44 14 -38 29 8
15 45 42 48 60 7 l14 -32 1 27 c2 54 32 43 33 -12 1 -42 23 -45 23 -2 0 27 5
36 23 43 20 8 22 6 17 -10 -7 -22 3 -71 15 -71 4 0 10 9 13 20 3 13 10 18 21
14 9 -3 16 -1 16 5 0 13 41 74 53 79 4 2 7 10 7 18 0 22 45 28 72 10 24 -15
25 -15 36 9 9 18 19 25 41 25 16 0 32 -6 34 -12 3 -7 6 -3 6 8 1 12 7 26 14
32 16 13 59 18 75 9 7 -5 12 -3 12 3 0 14 25 40 38 40 6 0 23 -15 38 -32 l27
-33 -6 33 c-7 36 6 43 25 12 17 -26 29 -25 73 4 20 14 40 26 46 28 6 2 7 10 4
19 -10 28 -69 54 -135 60 -111 11 -234 29 -268 40 -17 6 -46 8 -62 4 -23 -5
-30 -3 -30 9 0 11 -9 16 -26 16 -19 0 -25 -4 -21 -14 6 -15 -16 -40 -26 -30
-9 10 -88 -7 -81 -17 3 -5 -3 -9 -13 -9 -11 0 -24 -5 -30 -11 -7 -7 -22 -7
-50 0 -44 12 -125 6 -161 -12 -17 -8 -28 -8 -42 1 -11 7 -33 12 -50 12 -17 0
-49 12 -72 26 -23 15 -44 22 -45 17 -2 -5 -29 3 -61 20 -55 28 -60 28 -162 22
-149 -9 -169 -9 -320 -1 -117 7 -138 6 -157 -9z m677 -350 c0 -8 -4 -15 -10
-15 -5 0 -10 7 -10 15 0 8 5 15 10 15 6 0 10 -7 10 -15z m171 -18 c-8 -8 -11
-7 -11 4 0 20 13 34 18 19 3 -7 -1 -17 -7 -23z m75 17 c-3 -9 -6 -20 -6 -25 0
-5 -4 -9 -10 -9 -11 0 -14 33 -3 43 12 13 25 7 19 -9z"/>
<path d="M10598 3683 c6 -2 12 -13 12 -24 0 -10 5 -19 10 -19 16 0 11 37 -6
44 -9 3 -19 6 -22 5 -4 0 -1 -3 6 -6z"/>
<path d="M15290 3620 c0 -5 5 -10 10 -10 6 0 10 5 10 10 0 6 -4 10 -10 10 -5
0 -10 -4 -10 -10z"/>
<path d="M11380 3510 c0 -5 5 -10 10 -10 6 0 10 5 10 10 0 6 -4 10 -10 10 -5
0 -10 -4 -10 -10z"/>
<path d="M11260 3501 c0 -6 5 -13 10 -16 6 -3 10 1 10 9 0 9 -4 16 -10 16 -5
0 -10 -4 -10 -9z"/>
<path d="M13270 3320 c0 -5 5 -10 11 -10 5 0 7 5 4 10 -3 6 -8 10 -11 10 -2 0
-4 -4 -4 -10z"/>
<path d="M13883 3302 c-8 -5 -10 -21 -6 -45 5 -36 23 -52 23 -21 0 8 5 12 10
9 14 -8 12 15 -3 42 -7 13 -17 19 -24 15z"/>
<path d="M9780 3180 c0 -5 5 -10 10 -10 6 0 10 5 10 10 0 6 -4 10 -10 10 -5 0
-10 -4 -10 -10z"/>
<path d="M13686 2994 c-10 -26 -7 -101 5 -131 l12 -28 13 50 c8 28 14 67 14
88 0 30 -4 37 -19 37 -10 0 -22 -7 -25 -16z"/>
<path d="M10110 2995 c0 -13 32 -66 36 -62 6 6 -23 67 -31 67 -3 0 -5 -2 -5
-5z"/>
<path d="M10080 2963 c0 -4 5 -15 10 -23 8 -13 10 -13 10 2 0 9 -4 20 -10 23
-5 3 -10 3 -10 -2z"/>
<path d="M10187 2959 c7 -7 15 -10 18 -7 3 3 -2 9 -12 12 -14 6 -15 5 -6 -5z"/>
<path d="M13257 2883 c-4 -3 -7 -11 -7 -17 0 -6 5 -5 12 2 6 6 9 14 7 17 -3 3
-9 2 -12 -2z"/>
<path d="M13710 2815 c0 -8 4 -15 10 -15 5 0 7 7 4 15 -4 8 -8 15 -10 15 -2 0
-4 -7 -4 -15z"/>
<path d="M8833 2723 c-15 -5 -17 -23 -4 -23 5 0 11 7 15 15 3 8 4 15 3 14 -1
0 -8 -3 -14 -6z"/>
<path d="M8711 2664 c0 -11 3 -14 6 -6 3 7 2 16 -1 19 -3 4 -6 -2 -5 -13z"/>
<path d="M8820 2670 c0 -5 5 -10 11 -10 5 0 7 5 4 10 -3 6 -8 10 -11 10 -2 0
-4 -4 -4 -10z"/>
<path d="M4756 2624 c-8 -20 -8 -19 21 -28 20 -6 21 -5 10 18 -14 30 -22 32
-31 10z"/>
<path d="M4745 2560 c3 -5 8 -10 11 -10 2 0 4 5 4 10 0 6 -5 10 -11 10 -5 0
-7 -4 -4 -10z"/>
<path d="M4546 2541 c-4 -7 -5 -15 -2 -18 9 -9 19 4 14 18 -4 11 -6 11 -12 0z"/>
<path d="M9020 2540 c0 -5 12 -10 28 -9 24 0 25 1 7 9 -27 12 -35 12 -35 0z"/>
<path d="M13315 2500 c-3 -5 -1 -10 4 -10 6 0 11 5 11 10 0 6 -2 10 -4 10 -3
0 -8 -4 -11 -10z"/>
<path d="M4850 2490 c0 -5 5 -10 11 -10 5 0 7 5 4 10 -3 6 -8 10 -11 10 -2 0
-4 -4 -4 -10z"/>
<path d="M4898 2483 c7 -3 16 -2 19 1 4 3 -2 6 -13 5 -11 0 -14 -3 -6 -6z"/>
<path d="M9020 2461 c0 -5 7 -11 15 -15 8 -3 15 -1 15 3 0 5 -7 11 -15 15 -8
3 -15 1 -15 -3z"/>
<path d="M9467 2464 c-8 -8 1 -24 14 -24 5 0 9 7 9 15 0 15 -12 20 -23 9z"/>
<path d="M5036 2434 c-4 -14 -5 -29 -1 -32 3 -3 5 2 5 11 0 29 20 19 21 -10 0
-27 1 -27 11 -6 8 17 6 26 -10 43 l-20 21 -6 -27z"/>
<path d="M4500 2410 c0 -5 5 -10 11 -10 5 0 7 5 4 10 -3 6 -8 10 -11 10 -2 0
-4 -4 -4 -10z"/>
<path d="M4438 2393 c-22 -6 -24 -33 -2 -33 15 0 44 23 44 34 0 7 -16 6 -42
-1z"/>
<path d="M9710 2372 c0 -13 23 -32 38 -32 7 0 10 4 7 10 -9 14 -45 32 -45 22z"/>
<path d="M4428 2323 c7 -3 16 -2 19 1 4 3 -2 6 -13 5 -11 0 -14 -3 -6 -6z"/>
<path d="M8705 2320 c3 -5 8 -10 11 -10 2 0 4 5 4 10 0 6 -5 10 -11 10 -5 0
-7 -4 -4 -10z"/>
<path d="M7196 2305 c7 -16 24 -21 24 -6 0 6 15 12 33 14 25 3 21 4 -15 5 -38
2 -46 -1 -42 -13z"/>
<path d="M8678 2308 c-7 -16 7 -46 17 -37 3 4 2 16 -3 29 -7 18 -10 20 -14 8z"/>
<path d="M7530 2270 c0 -5 5 -10 10 -10 6 0 10 5 10 10 0 6 -4 10 -10 10 -5 0
-10 -4 -10 -10z"/>
<path d="M5285 2233 c3 -10 9 -30 12 -45 6 -32 23 -38 23 -9 0 30 -18 71 -31
71 -7 0 -8 -7 -4 -17z"/>
<path d="M7055 2230 c4 -6 11 -8 16 -5 14 9 11 15 -7 15 -8 0 -12 -5 -9 -10z"/>
<path d="M6770 2210 c-14 -11 -20 -20 -15 -19 13 0 50 28 44 33 -2 3 -15 -4
-29 -14z"/>
<path d="M8690 2214 c0 -8 5 -12 10 -9 6 3 10 10 10 16 0 5 -4 9 -10 9 -5 0
-10 -7 -10 -16z"/>
<path d="M5200 2209 c0 -5 5 -7 10 -4 6 3 10 8 10 11 0 2 -4 4 -10 4 -5 0 -10
-5 -10 -11z"/>
<path d="M5265 2210 c3 -5 8 -10 11 -10 2 0 4 5 4 10 0 6 -5 10 -11 10 -5 0
-7 -4 -4 -10z"/>
<path d="M6866 2201 c-4 -7 -5 -15 -2 -18 9 -9 19 4 14 18 -4 11 -6 11 -12 0z"/>
<path d="M8575 2191 c-3 -5 -1 -12 5 -16 5 -3 10 1 10 9 0 18 -6 21 -15 7z"/>
<path d="M6720 2179 c0 -5 5 -7 10 -4 6 3 10 8 10 11 0 2 -4 4 -10 4 -5 0 -10
-5 -10 -11z"/>
<path d="M5230 2170 c0 -5 5 -10 10 -10 6 0 10 5 10 10 0 6 -4 10 -10 10 -5 0
-10 -4 -10 -10z"/>
<path d="M6655 2160 c-16 -7 -17 -9 -3 -9 9 -1 20 4 23 9 7 11 7 11 -20 0z"/>
<path d="M7560 2156 c0 -2 7 -6 15 -10 8 -3 15 -1 15 4 0 6 -7 10 -15 10 -8 0
-15 -2 -15 -4z"/>
<path d="M5225 2120 c3 -5 13 -10 21 -10 8 0 14 5 14 10 0 6 -9 10 -21 10 -11
0 -17 -4 -14 -10z"/>
<path d="M4391 2104 c0 -11 3 -14 6 -6 3 7 2 16 -1 19 -3 4 -6 -2 -5 -13z"/>
<path d="M5290 2100 c0 -5 5 -10 10 -10 6 0 10 5 10 10 0 6 -4 10 -10 10 -5 0
-10 -4 -10 -10z"/>
<path d="M5293 2073 c9 -2 23 -2 30 0 6 3 -1 5 -18 5 -16 0 -22 -2 -12 -5z"/>
<path d="M7675 2030 c-3 -5 1 -10 9 -10 9 0 16 5 16 10 0 6 -4 10 -9 10 -6 0
-13 -4 -16 -10z"/>
<path d="M8090 1975 c0 -15 4 -24 10 -20 6 3 10 12 10 20 0 8 -4 17 -10 20 -6
4 -10 -5 -10 -20z"/>
<path d="M6650 1980 c0 -5 5 -10 10 -10 6 0 10 5 10 10 0 6 -4 10 -10 10 -5 0
-10 -4 -10 -10z"/>
<path d="M6650 1940 c0 -5 5 -10 10 -10 6 0 10 5 10 10 0 6 -4 10 -10 10 -5 0
-10 -4 -10 -10z"/>
<path d="M6638 1893 c7 -3 16 -2 19 1 4 3 -2 6 -13 5 -11 0 -14 -3 -6 -6z"/>
<path d="M7722 1870 c-7 -18 -18 -30 -29 -30 -15 0 -16 -2 -3 -10 11 -7 12
-12 3 -21 -6 -6 -9 -18 -6 -26 3 -7 2 -13 -3 -12 -21 4 -28 -2 -14 -11 13 -8
12 -10 -2 -10 -10 0 -18 -7 -18 -15 0 -13 4 -14 20 -5 11 6 20 16 20 22 0 7 4
7 14 -1 10 -9 16 -8 26 4 7 8 20 15 30 15 30 0 30 51 -1 93 l-27 37 -10 -30z"/>
<path d="M6470 1800 c0 -22 2 -40 4 -40 2 0 6 18 8 40 2 22 0 40 -4 40 -5 0
-8 -18 -8 -40z"/>
<path d="M6530 1829 c0 -5 5 -7 10 -4 6 3 10 8 10 11 0 2 -4 4 -10 4 -5 0 -10
-5 -10 -11z"/>
<path d="M14565 1789 c-10 -15 3 -25 16 -12 7 7 7 13 1 17 -6 3 -14 1 -17 -5z"/>
<path d="M5870 1770 c0 -5 5 -10 10 -10 6 0 10 5 10 10 0 6 -4 10 -10 10 -5 0
-10 -4 -10 -10z"/>
<path d="M6495 1770 c-3 -5 -1 -10 4 -10 6 0 11 5 11 10 0 6 -2 10 -4 10 -3 0
-8 -4 -11 -10z"/>
<path d="M14629 1709 c-8 -13 -23 -41 -34 -62 -12 -22 -25 -35 -33 -32 -7 2
-11 1 -8 -3 2 -4 -6 -12 -19 -18 -22 -11 -23 -9 -27 28 -2 21 1 43 6 48 20 20
-5 23 -27 3 -12 -11 -36 -28 -54 -38 -25 -15 -32 -26 -36 -59 -2 -23 0 -45 4
-50 14 -15 10 -26 -6 -20 -24 10 -56 -54 -53 -105 2 -31 -1 -45 -11 -49 -10
-3 -12 0 -8 11 4 11 2 14 -8 11 -8 -3 -14 -9 -13 -12 2 -11 -15 -46 -24 -53
-5 -3 -10 -15 -11 -27 -1 -16 -4 -18 -14 -10 -10 8 -13 6 -13 -8 0 -11 -3 -29
-6 -41 -9 -31 13 -30 28 2 6 13 29 37 52 52 23 15 51 38 62 50 12 12 25 19 28
16 3 -4 6 -1 6 7 0 10 3 10 14 0 12 -9 17 -5 26 29 6 23 8 46 4 52 -4 8 1 9
16 4 15 -5 20 -4 16 4 -4 6 -1 11 7 11 17 0 27 20 33 65 2 17 9 35 16 40 7 6
24 27 38 47 14 21 29 38 33 38 10 0 39 69 35 82 -2 6 -11 0 -19 -13z m-150
-241 c-9 -16 -14 -19 -17 -9 -2 7 2 17 9 22 20 13 21 11 8 -13z"/>
<path d="M6481 1694 c0 -11 3 -14 6 -6 3 7 2 16 -1 19 -3 4 -6 -2 -5 -13z"/>
<path d="M6100 1664 c0 -8 5 -12 10 -9 6 3 10 10 10 16 0 5 -4 9 -10 9 -5 0
-10 -7 -10 -16z"/>
<path d="M6412 1669 c2 -6 8 -10 13 -10 5 0 11 4 13 10 2 6 -4 11 -13 11 -9 0
-15 -5 -13 -11z"/>
<path d="M6160 1620 c0 -5 5 -10 10 -10 6 0 10 5 10 10 0 6 -4 10 -10 10 -5 0
-10 -4 -10 -10z"/>
<path d="M7593 1594 c-3 -8 -3 -18 1 -21 3 -4 6 1 6 10 0 10 5 14 15 11 8 -4
15 -4 15 -1 0 14 -31 15 -37 1z"/>
<path d="M6110 1589 c0 -5 5 -7 10 -4 6 3 10 8 10 11 0 2 -4 4 -10 4 -5 0 -10
-5 -10 -11z"/>
<path d="M6415 1590 c3 -5 8 -10 11 -10 2 0 4 5 4 10 0 6 -5 10 -11 10 -5 0
-7 -4 -4 -10z"/>
<path d="M8170 1580 c0 -5 4 -10 9 -10 6 0 13 5 16 10 3 6 -1 10 -9 10 -9 0
-16 -4 -16 -10z"/>
<path d="M7610 1570 c0 -5 7 -10 16 -10 8 0 12 5 9 10 -3 6 -10 10 -16 10 -5
0 -9 -4 -9 -10z"/>
<path d="M6248 1563 c7 -3 16 -2 19 1 4 3 -2 6 -13 5 -11 0 -14 -3 -6 -6z"/>
<path d="M6313 1555 c-10 -10 -9 -16 4 -27 13 -10 15 -10 9 0 -4 7 -2 19 4 27
16 19 -1 19 -17 0z"/>
<path d="M6444 1546 c-4 -11 -2 -21 7 -27 18 -11 24 5 10 28 -9 17 -10 17 -17
-1z"/>
<path d="M7600 1542 c0 -6 9 -12 20 -15 11 -3 20 -3 20 -1 0 2 -9 8 -20 14
-11 6 -20 7 -20 2z"/>
<path d="M6240 1513 c0 -10 4 -14 8 -8 4 6 11 13 16 18 5 4 2 7 -7 7 -10 0
-17 -8 -17 -17z"/>
<path d="M7580 1490 c0 -5 5 -10 10 -10 6 0 10 5 10 10 0 6 -4 10 -10 10 -5 0
-10 -4 -10 -10z"/>
<path d="M6255 1480 c3 -5 8 -10 11 -10 2 0 4 5 4 10 0 6 -5 10 -11 10 -5 0
-7 -4 -4 -10z"/>
<path d="M4118 1458 c9 -9 15 -9 24 0 9 9 7 12 -12 12 -19 0 -21 -3 -12 -12z"/>
<path d="M8153 1383 c-17 -3 -23 -12 -25 -41 -2 -27 -9 -40 -28 -49 l-25 -13
28 0 c15 0 27 -5 27 -12 0 -18 14 0 17 24 2 12 11 30 20 40 18 20 28 59 15 57
-4 -1 -17 -4 -29 -6z m17 -17 c0 -3 -4 -8 -10 -11 -5 -3 -10 -1 -10 4 0 6 5
11 10 11 6 0 10 -2 10 -4z"/>
<path d="M8095 1320 c-3 -5 -1 -10 4 -10 6 0 11 5 11 10 0 6 -2 10 -4 10 -3 0
-8 -4 -11 -10z"/>
<path d="M8071 1254 c0 -11 3 -14 6 -6 3 7 2 16 -1 19 -3 4 -6 -2 -5 -13z"/>
<path d="M7570 1220 c0 -5 5 -10 10 -10 6 0 10 5 10 10 0 6 -4 10 -10 10 -5 0
-10 -4 -10 -10z"/>
<path d="M7586 1201 c-14 -5 -16 -10 -8 -15 7 -4 19 0 28 8 17 17 11 19 -20 7z"/>
<path d="M14085 1153 c-31 -33 -45 -53 -41 -66 4 -15 0 -18 -15 -14 -12 3 -19
0 -19 -9 0 -8 -4 -14 -10 -14 -5 0 -10 -9 -10 -21 0 -11 4 -18 9 -14 5 3 12 1
16 -5 3 -5 1 -10 -4 -10 -6 0 -11 -4 -11 -10 0 -18 35 3 78 47 23 24 42 50 42
58 0 8 4 15 9 15 5 0 12 12 15 28 4 15 9 35 12 45 10 32 -23 18 -71 -30z"/>
<path d="M7510 1119 c0 -5 5 -7 10 -4 6 3 10 8 10 11 0 2 -4 4 -10 4 -5 0 -10
-5 -10 -11z"/>
<path d="M7482 1089 c-7 -12 -11 -24 -7 -27 7 -8 25 17 25 36 0 17 -3 15 -18
-9z"/>
<path d="M7450 1037 c0 -7 5 -18 11 -24 8 -8 7 -17 -5 -34 -17 -25 -22 -69 -7
-69 15 0 44 86 37 108 -8 23 -36 38 -36 19z"/>
<path d="M3960 860 c0 -24 15 -27 24 -4 9 22 8 24 -9 24 -8 0 -15 -9 -15 -20z"/>
<path d="M410 469 c0 -5 5 -7 10 -4 6 3 10 8 10 11 0 2 -4 4 -10 4 -5 0 -10
-5 -10 -11z"/>
<path d="M13941 401 c-15 -21 -16 -23 -8 -52 3 -13 10 -18 17 -14 8 5 8 11 2
17 -7 7 -7 19 -1 36 12 31 7 37 -10 13z"/>
<path d="M3860 360 c0 -11 5 -20 10 -20 6 0 10 9 10 20 0 11 -4 20 -10 20 -5
0 -10 -9 -10 -20z"/>
<path d="M3900 226 c0 -8 5 -18 10 -21 6 -3 10 -17 10 -30 0 -18 4 -22 21 -18
l20 6 -20 21 c-12 12 -21 30 -21 39 0 9 -4 17 -10 17 -5 0 -10 -6 -10 -14z"/>
<path d="M3764 194 c3 -8 2 -13 -3 -10 -5 3 -11 -1 -15 -9 -3 -8 -1 -15 3 -15
5 0 16 -2 24 -5 10 -4 14 2 14 25 0 19 -5 30 -15 30 -9 0 -12 -6 -8 -16z"/>
<path d="M1120 114 c0 -8 5 -12 10 -9 6 4 8 11 5 16 -9 14 -15 11 -15 -7z"/>
<path d="M7300 110 c0 -5 5 -10 11 -10 5 0 7 5 4 10 -3 6 -8 10 -11 10 -2 0
-4 -4 -4 -10z"/>
<path d="M3690 80 c0 -5 4 -10 9 -10 6 0 13 5 16 10 3 6 -1 10 -9 10 -9 0 -16
-4 -16 -10z"/>
<path d="M3910 65 c0 -8 8 -19 18 -24 16 -10 16 -12 -2 -26 -19 -15 -19 -15 2
-15 24 0 44 31 24 38 -7 2 -12 10 -12 17 0 7 -7 15 -15 19 -9 3 -15 0 -15 -9z"/>
<path d="M3670 53 c0 -4 5 -15 10 -23 8 -13 10 -13 10 2 0 9 -4 20 -10 23 -5
3 -10 3 -10 -2z"/>
</g>
</svg>
